<svg xmlns="http://www.w3.org/2000/svg" viewBox="0 0 44.44 17.31"><defs><style>.cls-1{fill:#009fe3;}</style></defs><title>Recurso 21</title><g id="Capa_2" data-name="Capa 2"><g id="Capa_1-2" data-name="Capa 1"><path class="cls-1" d="M22.24,17.31H12.37c0-.69,0-1.37,0-2,0-.45,0-.45-.45-.45H0V0H44.44v14.8H22.24ZM37.11,5c.69,0,1.34,0,2,0,.32,0,.43.08.43.42,0,2.19,0,4.38,0,6.57v.41H42c0-.12,0-.22,0-.32q0-4.62,0-9.24c0-.33-.13-.38-.41-.38H27.55l-.37,0v9.92h5c0-.17,0-.32,0-.46,0-2.19,0-4.38,0-6.57,0-.28.07-.39.37-.38.54,0,1.09,0,1.63,0,.33,0,.41.1.4.41,0,2.18,0,4.36,0,6.53,0,.15,0,.3,0,.45h2.53Zm-17.3,7.4h4.92c0-.11,0-.17,0-.24q0-4.7,0-9.38c0-.28-.12-.33-.36-.33q-4.62,0-9.24,0c-.28,0-.37.07-.37.37,0,3.91,0,7.83,0,11.74,0,.29.09.36.36.35,1.41,0,2.82,0,4.23,0,.37,0,.45-.12.44-.46C19.8,13.76,19.81,13.09,19.81,12.37Zm-7.45,0c0-.08,0-.13,0-.17q0-4.74,0-9.48c0-.32-.17-.29-.38-.29H2.81c-.31,0-.39.1-.39.4,0,3.07,0,6.13,0,9.2,0,.11,0,.23,0,.33h5V5H9.87v7.38Z"/><path class="cls-1" d="M19.83,9.84V5h2.38V9.84Z"/></g></g></svg>