<svg xmlns="http://www.w3.org/2000/svg" viewBox="0 0 20.01 20.01"><defs><style>.cls-1{fill:#b8b7ad;}</style></defs><title>Recurso 7</title><g id="Capa_2" data-name="Capa 2"><g id="Capa_1-2" data-name="Capa 1"><path class="cls-1" d="M0,10.61V9.4a.8.8,0,0,0,0-.15A10,10,0,0,1,11.9.18a10,10,0,0,1,6.68,4.67,9.48,9.48,0,0,1,1.3,3.57c.05.33.09.65.13,1v1.21l0,.16a10,10,0,0,1-1.05,3.77,10,10,0,0,1-7.37,5.35l-1,.12H9.4l-.71-.09a9.66,9.66,0,0,1-3.27-1,10,10,0,0,1-3-2.38A9.82,9.82,0,0,1,.13,11.57C.08,11.26,0,10.93,0,10.61Zm11.29,5.47a22.3,22.3,0,0,0,3.1-.3.4.4,0,0,0,.32-.2l2-3.8a.18.18,0,0,0,0-.16c-.16-.3-.31-.62-.49-.91-.36-.6-.75-1.19-1.11-1.79a.28.28,0,0,0-.33-.16l-4.15.42a.27.27,0,0,0-.15.11c-.51,1-1,1.94-1.54,2.9a.33.33,0,0,0,0,.38l1.89,3.28C11,16,11.11,16.14,11.29,16.08Zm.84-14v0L9.65,2.3a.2.2,0,0,0-.19.15c-.37,1.13-.75,2.27-1.13,3.39a.2.2,0,0,0,.05.22c.22.22.44.46.65.69.5.55,1,1.1,1.47,1.66a.32.32,0,0,0,.3.13c1.34-.15,2.69-.28,4-.42A.19.19,0,0,0,15,8c.29-.79.59-1.59.9-2.38a.2.2,0,0,0-.05-.23L13.29,2.46c-.33-.37-.33-.37-.82-.38Zm-3,16.09a.58.58,0,0,0,.13-.11c.38-.52.77-1,1.15-1.57a.2.2,0,0,0,0-.17c-.07-.15-.17-.29-.25-.44l-1.72-3a.27.27,0,0,0-.22-.15c-.64-.11-1.28-.21-1.92-.33-.48-.09-1-.22-1.43-.33-.09,0-.14,0-.2.07C4.18,13,3.64,13.86,3.1,14.7a.18.18,0,0,0,0,.22,16.06,16.06,0,0,0,1.56,2.36.4.4,0,0,0,.2.11q1.58.3,3.15.57ZM2.09,6l.12.11q1,.62,2,1.2a.19.19,0,0,0,.18,0A19.84,19.84,0,0,1,7.57,5.64a.42.42,0,0,0,.27-.28c.33-1,.68-2.06,1-3.09,0-.08,0-.12-.06-.18A7.9,7.9,0,0,0,7,1.17a.17.17,0,0,0-.12,0c-.25.1-.51.19-.75.3A9,9,0,0,0,3.52,3.25a2.55,2.55,0,0,0-.66.83c-.19.42-.37.85-.55,1.29C2.23,5.55,2.17,5.73,2.09,6Zm-.36.56c-.23.37-.46.72-.67,1.07A1.44,1.44,0,0,0,.87,8,11.14,11.14,0,0,0,.68,9.24,9.23,9.23,0,0,0,1.13,13a.91.91,0,0,0,.19.29,5.14,5.14,0,0,0,.42.38l.86.62.12-.17,1.44-2.25a.7.7,0,0,0,.17-.57,14.64,14.64,0,0,1-.32-3,.59.59,0,0,0-.34-.62C3,7.3,2.39,6.91,1.73,6.51ZM15.51,17.59a9.16,9.16,0,0,0,2.66-3,9,9,0,0,0,1.16-3.84,1.53,1.53,0,0,1-.16.13l-1.56.9a.61.61,0,0,0-.24.17c-.17.29-.32.59-.48.88L15.23,16a.39.39,0,0,0,0,.24c.07.37.16.74.24,1.1C15.47,17.38,15.48,17.47,15.51,17.59ZM13.58,1.34c-.14.3,0,.5.18.71.82.91,1.64,1.83,2.45,2.75a1.39,1.39,0,0,0,.51.39c.41.17.8.37,1.19.57.2.11.39.23.58.35A9.2,9.2,0,0,0,13.58,1.34Zm-3.28,18L9.42,19A1.52,1.52,0,0,0,9,18.8L6.1,18.27l-.61-.1v0A9,9,0,0,0,10.3,19.33Z"/></g></g></svg>