<svg xmlns="http://www.w3.org/2000/svg" viewBox="0 0 25.26 29.04"><defs><style>.cls-1{fill:#009fe3;}</style></defs><title>Recurso 13</title><g id="Capa_2" data-name="Capa 2"><g id="Capa_1-2" data-name="Capa 1"><path class="cls-1" d="M23.09,0H9.32A6.94,6.94,0,0,0,2.38,6.72H1.06a1.07,1.07,0,0,0,0,2.13h1.3v3.76H1.06a1.07,1.07,0,0,0,0,2.13h1.3v3.75H1.06a1.07,1.07,0,0,0,0,2.13h1.3v1.47a7,7,0,0,0,7,7H23.09a2.16,2.16,0,0,0,2.17-2.16V2.17A2.17,2.17,0,0,0,23.09,0ZM14,7.6a4.19,4.19,0,1,1-4.2,4.17A4.21,4.21,0,0,1,14,7.6Zm6.83,13.82a1.32,1.32,0,0,1-.28,0H7.42a1.27,1.27,0,0,1-.34,0,.46.46,0,0,1-.4-.5,6.18,6.18,0,0,1,.44-1.79,7.45,7.45,0,0,1,3.26-3.76.25.25,0,0,1,.35.05,4.86,4.86,0,0,0,6.58,0,.2.2,0,0,1,.27,0,7.44,7.44,0,0,1,3.7,5.15,3.11,3.11,0,0,1,0,.32A.51.51,0,0,1,20.85,21.42Z"/></g></g></svg>