<svg xmlns="http://www.w3.org/2000/svg" viewBox="0 0 37.33 26.96"><defs><style>.cls-1{fill:#009fe3;}</style></defs><title>Recurso 32</title><g id="Capa_2" data-name="Capa 2"><g id="Capa_1-2" data-name="Capa 1"><path class="cls-1" d="M0,2.09c1.1.38,2.19.77,3.29,1.12a10.21,10.21,0,0,0,1.87.46,3.65,3.65,0,0,0,2.43-.74A23.47,23.47,0,0,1,12.47.48a4.64,4.64,0,0,1,4.73.8,1.65,1.65,0,0,0,.26.15l-1,.54c-1.34.79-2.7,1.55-4,2.38a3.67,3.67,0,0,0,3.16,6.58c1.34-.62,2.7-1.21,4-1.83a2.41,2.41,0,0,1,2.95.55c1.25,1.28,2.53,2.54,3.79,3.8,1.08,1.09,2.19,2.16,3.25,3.27A1.48,1.48,0,0,1,30,18.36a1.56,1.56,0,0,1-1.37,1,1.7,1.7,0,0,1-1.39-.54c-.77-.74-1.54-1.46-2.32-2.18a2.69,2.69,0,0,0-.44-.31l-.1.1c.23.31.46.64.71.93.64.75,1.32,1.47,1.93,2.23a1.57,1.57,0,0,1-.17,2,1.6,1.6,0,0,1-2.07.17c-.64-.5-1.22-1.08-1.84-1.6s-1.21-1-1.82-1.49a1.38,1.38,0,0,0-.27-.14l-.07.06a4,4,0,0,0,.39.51c.75.74,1.51,1.47,2.27,2.2A1.74,1.74,0,0,1,24,23.09,1.52,1.52,0,0,1,22.9,24.3a1.61,1.61,0,0,1-1.64-.44l-2.82-2.69a.94.94,0,0,0-.23-.16l-.09.08c.23.3.45.61.69.89.52.6,1.07,1.17,1.58,1.79a1.62,1.62,0,0,1-2.26,2.28,10.27,10.27,0,0,1-1-1,.43.43,0,0,1,0-.28,3.68,3.68,0,0,0-2.39-3.93.57.57,0,0,1-.28-.31,3.62,3.62,0,0,0-2.14-2.33.51.51,0,0,1-.35-.35A3.49,3.49,0,0,0,9.86,15.7a.55.55,0,0,1-.35-.36A3.44,3.44,0,0,0,6.57,13a4.11,4.11,0,0,0-4.42,2.41c0,.1-.09.2-.14.3L0,15Z"/><path class="cls-1" d="M37.33,14.61c-1.18.22-2.35.46-3.54.65a4.67,4.67,0,0,1-1.24,0,2.49,2.49,0,0,1-1.47-.79L24.85,8.36,23.34,6.88A2.08,2.08,0,0,0,21,6.49c-.91.38-1.76.86-2.64,1.31s-2,1-3,1.48a2.18,2.18,0,0,1-3.13-1.75,1.82,1.82,0,0,1,1-1.82q2.56-1.55,5.18-3C19.7,1.94,21,1.24,22.29.53A3.25,3.25,0,0,1,23.91,0a3,3,0,0,1,1.9.83c1.34,1.1,2.66,2.23,4,3.35a1.83,1.83,0,0,0,1.64.44c1.43-.3,2.87-.63,4.3-.94l1.6-.34Z"/><path class="cls-1" d="M7.88,17.22a2.22,2.22,0,0,1,2,.52,2.07,2.07,0,0,1,.45,2,2.09,2.09,0,0,1,2.07.61,2.13,2.13,0,0,1,.31,2.11l.33-.05A2,2,0,0,1,15.3,25a3.14,3.14,0,0,1-3.58,1.92,1.48,1.48,0,0,1-1-1.91c.1-.33.25-.65.4-1l-.57.16a2.44,2.44,0,0,1-1.31.12,1.4,1.4,0,0,1-1-1.72c.08-.33.21-.65.32-1l-1.06.25A1.45,1.45,0,0,1,5.78,19.8c.11-.24.17-.52.28-.84-.3.08-.56.14-.81.22a1.54,1.54,0,0,1-2-1.76A3.21,3.21,0,0,1,5,14.86a2.07,2.07,0,0,1,2.81.88,4,4,0,0,1,.15,1.16A1.39,1.39,0,0,1,7.88,17.22Z"/></g></g></svg>