<svg xmlns="http://www.w3.org/2000/svg" viewBox="0 0 29.11 35.74"><defs><style>.cls-1{fill:#009fe3;}</style></defs><title>Recurso 33</title><g id="Capa_2" data-name="Capa 2"><g id="Capa_1-2" data-name="Capa 1"><path class="cls-1" d="M5.53,3.61c.07.43.09.79.18,1.15A2.46,2.46,0,0,0,8.05,6.61c2.31,0,4.61,0,6.91,0a2.46,2.46,0,0,0,2.39-2.16c0-.26.07-.53.12-.92,1.36.07,2.72.07,4.07.24A1.77,1.77,0,0,1,23,5.67c0,4.94,0,9.88,0,14.82,0,.27-.09.4-.37.42-.68.05-1.36.12-2.12.19V9.2l-.32,0H3.12c-.46,0-.6.13-.6.58q0,9.69,0,19.39c0,.45.19.55.6.55H14.25c.19.83.37,1.62.56,2.48H2.29A2.06,2.06,0,0,1,0,30c0-.12,0-.24,0-.35V6.15A2.7,2.7,0,0,1,.72,4a1.22,1.22,0,0,1,.69-.36C2.77,3.59,4.14,3.61,5.53,3.61Z"/><path class="cls-1" d="M22.47,35.74A6.63,6.63,0,1,1,29.11,29,6.58,6.58,0,0,1,22.47,35.74Zm-.61-5.56c-.61-.48-1.19-1-1.79-1.4a1,1,0,0,0-1.44.13,1.07,1.07,0,0,0,.11,1.52c.85.71,1.71,1.4,2.59,2.06a1.06,1.06,0,0,0,1.45-.11c.31-.31.59-.64.88-1,1.06-1.2,2.12-2.39,3.17-3.6a1.05,1.05,0,0,0-.35-1.74,1.15,1.15,0,0,0-1.34.41Z"/><path class="cls-1" d="M11.49,5.57c-1.1,0-2.2,0-3.3,0a1.54,1.54,0,0,1-1.45-1,1.48,1.48,0,0,1,.59-1.71,2.66,2.66,0,0,1,1.14-.28c1,0,1.09-.1,1.3-1.06A1.72,1.72,0,0,1,11.64,0a1.8,1.8,0,0,1,1.64,1.61c.11.75.23.87,1,.92.21,0,.43,0,.64,0a1.45,1.45,0,0,1,1.41,1.61,1.45,1.45,0,0,1-1.57,1.4Zm.81-3.8a.85.85,0,0,0-.8-.8.82.82,0,0,0-.78.76.77.77,0,0,0,.74.78A.79.79,0,0,0,12.3,1.77Z"/><path class="cls-1" d="M13.77,17.82H9.92c-.56,0-.7-.16-.7-.72s.16-.75.69-.75q3.9,0,7.8,0c.5,0,.69.23.69.77s-.17.7-.68.7Z"/><path class="cls-1" d="M13.8,13.21c-1.3,0-2.6,0-3.9,0-.48,0-.67-.21-.69-.66s.1-.72.61-.78a5.43,5.43,0,0,1,.7,0h7c.69,0,.89.15.87.77s-.15.68-.69.68Z"/><path class="cls-1" d="M12.5,21.92c-.88,0-1.77,0-2.65,0-.5,0-.59-.27-.59-.66,0-.65.09-.81.59-.81h5.3c.54,0,.65.18.66.82,0,.48-.19.67-.66.66C14.27,21.91,13.39,21.92,12.5,21.92Z"/><path class="cls-1" d="M12,26.53H9.92c-.55,0-.7-.16-.7-.72s.14-.74.72-.74H14a.81.81,0,0,1,.89.74c0,.48-.29.73-.86.74Z"/><path class="cls-1" d="M6,26.94a2.63,2.63,0,0,1-.38-.2q-.52-.39-1-.81c-.23-.19-.34-.43-.13-.69s.42-.17.66,0c.87.55.87.55,1.56-.24l.73-.83a.49.49,0,0,1,.74-.08c.28.24.11.45,0,.64C7.56,25.36,7,26,6.41,26.65A2.19,2.19,0,0,1,6,26.94Z"/><path class="cls-1" d="M5.94,17.08c.47-.52.93-1,1.38-1.53.24-.27.51-.54.84-.23s.05.59-.18.85c-.51.57-1,1.13-1.53,1.71a.55.55,0,0,1-.9.07,8.14,8.14,0,0,1-1-.8.69.69,0,0,1-.08-.64c.14-.27.41-.2.64,0Z"/><path class="cls-1" d="M5.94,21.43c.51-.56,1-1.07,1.41-1.58.22-.25.49-.48.8-.2s.09.57-.13.81c-.53.59-1,1.17-1.56,1.76a.55.55,0,0,1-.89.09,9.16,9.16,0,0,1-1-.79c-.13-.14-.09-.43-.13-.65.22,0,.48-.1.66,0A4.86,4.86,0,0,1,5.94,21.43Z"/><path class="cls-1" d="M8.36,11.05a3.36,3.36,0,0,1-.29.44c-.53.62-1.08,1.23-1.61,1.84a.54.54,0,0,1-.86.1l-1-.79c-.22-.19-.39-.45-.12-.67a.83.83,0,0,1,.66,0c.29.11.58.49.81.44s.46-.44.69-.68.57-.66.89-1a.56.56,0,0,1,.49-.09C8.17,10.71,8.25,10.91,8.36,11.05Z"/></g></g></svg>