<svg xmlns="http://www.w3.org/2000/svg" viewBox="0 0 24.29 17.06"><defs><style>.cls-1{fill:#b8b7ad;}</style></defs><title>Recurso 6</title><g id="Capa_2" data-name="Capa 2"><g id="Capa_1-2" data-name="Capa 1"><path class="cls-1" d="M24.29,12V13.8c0,.13-.05.26-.09.39a10.75,10.75,0,0,1-.48,1.68,1.75,1.75,0,0,1-2.23,1,6.65,6.65,0,0,1-2.38-1.26C18.06,14.87,17,14,16,13.31A6.71,6.71,0,0,0,9,12.77a10.32,10.32,0,0,0-2.69,2.05,7,7,0,0,1-3.62,2.24H1.81A2.2,2.2,0,0,1,.35,15.45c-.14-.52-.24-1-.35-1.56V12.08c.12-.79.21-1.58.37-2.36A17.35,17.35,0,0,1,3.62,2.2,5.24,5.24,0,0,1,8.09,0c2.79.08,5.58.06,8.37,0a4.88,4.88,0,0,1,3.89,1.77,16.11,16.11,0,0,1,3.48,7.45C24,10.14,24.14,11.07,24.29,12Zm-20-6.63A3.15,3.15,0,0,0,7.4,8.54a3.17,3.17,0,1,0,0-6.34A3.15,3.15,0,0,0,4.26,5.36ZM18.31,7.78a1.49,1.49,0,0,0-1.49-1.5,1.5,1.5,0,1,0,0,3A1.48,1.48,0,0,0,18.31,7.78ZM18.1,4.83a1.38,1.38,0,1,0-1.39-1.38A1.4,1.4,0,0,0,18.1,4.83Zm-2.54-.89a1,1,0,0,0-1,1,1,1,0,0,0,1,1,1,1,0,0,0,1-1A1.06,1.06,0,0,0,15.56,3.94Zm3.88,1.57a1,1,0,0,0-1,1,1,1,0,0,0,1,1,1,1,0,1,0,0-2Z"/><path class="cls-1" d="M7.37,3.81A1.57,1.57,0,0,1,9,5.42,1.58,1.58,0,0,1,7.41,7,1.6,1.6,0,0,1,5.77,5.42,1.58,1.58,0,0,1,7.37,3.81Z"/></g></g></svg>