<svg xmlns="http://www.w3.org/2000/svg" viewBox="0 0 14.7 15.98"><defs><style>.cls-1{fill:#009fe3;}</style></defs><title>Recurso 40</title><g id="Capa_2" data-name="Capa 2"><g id="Capa_1-2" data-name="Capa 1"><path class="cls-1" d="M14.69,2.74c-.12,1.07-.23,2.11-.35,3.16S14.11,8,14,9s-.24,2.23-.37,3.35a.28.28,0,0,1-.15.17L9.26,14.93l-1.78,1a.24.24,0,0,1-.27,0l-6-3.4a.25.25,0,0,1-.15-.23C.87,10.54.67,8.76.47,7,.32,5.59.16,4.19,0,2.79a.21.21,0,0,1,.17-.26L7.14,0a.61.61,0,0,1,.42,0l7,2.5C14.66,2.58,14.73,2.63,14.69,2.74ZM12,11.66C10.46,8.24,8.91,4.84,7.35,1.4L2.67,11.66H4.25a.18.18,0,0,0,.21-.14c.27-.71.54-1.4.8-2.1,0-.09.07-.14.18-.13l.91,0H9.22a.21.21,0,0,1,.22.16c.26.7.53,1.38.79,2.07a.18.18,0,0,0,.21.15H12Z"/><path class="cls-1" d="M8.76,7.92H5.94l1.41-3.3C7.82,5.74,8.29,6.82,8.76,7.92Z"/></g></g></svg>