<svg xmlns="http://www.w3.org/2000/svg" viewBox="0 0 20.49 18.69"><defs><style>.cls-1{fill:#009fe3;}</style></defs><title>Recurso 28</title><g id="Capa_2" data-name="Capa 2"><g id="Capa_1-2" data-name="Capa 1"><path class="cls-1" d="M5,6.59A7.88,7.88,0,0,0,1.55,7.86c-.88.65-.89,1.36,0,2.06a8.39,8.39,0,0,0,1.25.77c.28.14.44.31.31.62a.4.4,0,0,1-.65.18A11.56,11.56,0,0,1,.69,10.31a1.87,1.87,0,0,1,.16-3A8.11,8.11,0,0,1,4.16,5.85l.61-.14a16.47,16.47,0,0,1-.24-1.95,9.2,9.2,0,0,1,.16-2.29A1.69,1.69,0,0,1,7.1.16,10.37,10.37,0,0,1,9.2,1.5c.1.07,0,.39,0,.6-.21,0-.46.08-.62,0-.42-.24-.79-.58-1.22-.83C6.21.58,5.6.84,5.41,2.18a8.57,8.57,0,0,0,.28,3.37c.78-.06,1.54-.11,2.29-.19a.72.72,0,0,0,.37-.26,16.83,16.83,0,0,1,3.89-3.69A7.17,7.17,0,0,1,14,.6,2.22,2.22,0,0,1,16.9,3.1a7,7,0,0,1-.42,1.45c-.11.3-.33.47-.66.31s-.23-.4-.14-.68A6.31,6.31,0,0,0,16,2.72,1.27,1.27,0,0,0,14.38,1.4a5.4,5.4,0,0,0-2.44,1.32C11,3.51,10.17,4.37,9.3,5.21l.08.11c.94.08,1.89.13,2.83.24a16.69,16.69,0,0,1,6.08,1.66,6.18,6.18,0,0,1,1.54,1.13,2,2,0,0,1-.09,3A8.24,8.24,0,0,1,18,12.41c-.13.06-.38-.13-.57-.2.09-.2.11-.48.26-.58.36-.26.81-.39,1.16-.65,1-.72,1.06-1.55.09-2.28a8.67,8.67,0,0,0-2.23-1.23A21.53,21.53,0,0,0,8.85,6.25a.58.58,0,0,0-.41.2q-.81,1.2-1.59,2.43a.51.51,0,0,0,0,.4A17.66,17.66,0,0,0,12.12,17a5.21,5.21,0,0,0,1.42.75,1,1,0,0,0,1.4-.68,6,6,0,0,0,.15-3A19.76,19.76,0,0,0,13.5,8.82a.81.81,0,0,1-.06-.55A.46.46,0,0,1,13.82,8a.81.81,0,0,1,.44.39c.54,1.54,1.11,3.08,1.55,4.65a8.06,8.06,0,0,1,.12,3.72,2,2,0,0,1-3,1.64,6.44,6.44,0,0,1-1.2-.67,11.69,11.69,0,0,1-3.07-3.24c-.9-1.39-1.69-2.84-2.57-4.33-.39,1-.86,2-1.17,3a9.74,9.74,0,0,0-.4,2.51c0,1.45,1,2.06,2.33,1.42.3-.16.59-.35.88-.53s.51-.22.69.06a.43.43,0,0,1-.2.66,11.55,11.55,0,0,1-1.47.78,2.2,2.2,0,0,1-3-1.74,6.76,6.76,0,0,1,.46-3.72c.4-1.12,1-2.19,1.42-3.29a1.26,1.26,0,0,0,.05-.72C5.44,8,5.21,7.33,5,6.59Zm.88-.16C6,7,6.17,7.45,6.33,8L7.44,6.28Z"/><path class="cls-1" d="M11.59,9.34a1.38,1.38,0,0,1-1.31,1.35,1.34,1.34,0,1,1,1.31-1.35Z"/><path class="cls-1" d="M5.86,6.43l1.58-.15L6.33,8C6.17,7.45,6,7,5.86,6.43Z"/></g></g></svg>