<svg xmlns="http://www.w3.org/2000/svg" viewBox="0 0 12.93 12.93"><defs><style>.cls-1{fill:#009fe3;}</style></defs><title>Recurso 39</title><g id="Capa_2" data-name="Capa 2"><g id="Capa_1-2" data-name="Capa 1"><path class="cls-1" d="M12.92,6.45v4.84a1.49,1.49,0,0,1-1.67,1.64H1.64A1.5,1.5,0,0,1,0,11.29V1.64A1.47,1.47,0,0,1,1.64,0c3.23,0,6.45,0,9.68,0a1.58,1.58,0,0,1,1.61,1.61C12.89,3.22,12.92,4.83,12.92,6.45ZM4.74,2.11c0,.12.06.21.09.3.23.77.44,1.56.7,2.32a1.17,1.17,0,0,0,1.22.8c.55,0,1.09,0,1.64,0a1.65,1.65,0,0,0,1.4-.63,19.76,19.76,0,0,0,2.29-3.69s0-.06,0-.12A.63.63,0,0,0,11.88,1c-.52,0-1.05,0-1.57,0A1.45,1.45,0,0,0,8.92,2.11l-.27.79c-.16.51-.32,1-.49,1.53C8,4,7.92,3.63,7.8,3.25a12.73,12.73,0,0,0-.54-1.5,1,1,0,0,0-1-.6c-.61,0-1.21,0-1.81,0a2.25,2.25,0,0,0-2,1A9.05,9.05,0,0,0,.89,5.29c0,.09,0,.18,0,.34a14.5,14.5,0,0,0,1.51-.08,1.35,1.35,0,0,0,1.1-1A10,10,0,0,0,3.8,3.54,3.37,3.37,0,0,1,4.74,2.11ZM4.42,11,3.32,9.26a7.4,7.4,0,0,0-.62-.92c-.12-.13-.38-.14-.58-.17,0,0-.15.17-.15.26,0,1,0,2.09,0,3.13a.27.27,0,0,0,.42.25.45.45,0,0,0,.12-.33c0-.8,0-1.61,0-2.5.31.48.57.89.84,1.29s.58,1,.92,1.4c.09.12.33.14.51.16s.16-.13.16-.2q0-1.62,0-3.24c0-.08-.15-.23-.22-.22a.45.45,0,0,0-.28.21c-.05.08,0,.21,0,.31Zm1.24-1c0,.51,0,1,0,1.53,0,.11.13.3.21.31.52,0,1,0,1.57,0,.07,0,.2-.16.2-.24s-.12-.21-.22-.24a1.82,1.82,0,0,0-.41,0c-.95,0-.8.19-.81-.87,0-.2.07-.27.27-.27a5.21,5.21,0,0,0,.79,0A.32.32,0,0,0,7.48,10c0-.06-.11-.18-.2-.21a1,1,0,0,0-.34,0c-.84,0-.72.13-.74-.75,0-.23.07-.34.32-.33a3.22,3.22,0,0,0,.76,0,.41.41,0,0,0,.3-.24c0-.2-.12-.27-.31-.27H6c-.23,0-.33.1-.32.33C5.67,9,5.66,9.48,5.66,10Zm3.89.24v-1c0-.69-.06-.61.61-.62.06,0,.13,0,.17,0s.22-.16.22-.24-.12-.25-.2-.25c-.73,0-1.46,0-2.18,0-.08,0-.2.15-.2.21a.36.36,0,0,0,.2.26,1.11,1.11,0,0,0,.48,0c.27,0,.36.08.36.36,0,.81,0,1.62,0,2.43,0,.2,0,.42.28.41s.27-.23.27-.42ZM3.17,7a1.56,1.56,0,0,0,0,.45.85.85,0,0,0,.17.29.65.65,0,0,0,.13-.28,5.75,5.75,0,0,0,0-.83,1.1,1.1,0,0,0-.12-.33c-.1.09-.23.15-.29.26a7.2,7.2,0,0,0-.35.73c-.15-.32-.25-.58-.37-.83a.4.4,0,0,0-.24-.15S2,6.47,2,6.54c0,.35,0,.7,0,1,0,.06.08.12.12.18s.13-.13.14-.2,0-.39,0-.63l.45.84h.11C2.9,7.55,3,7.33,3.17,7Zm3.58.27a.57.57,0,0,0-.53-.61.53.53,0,0,0-.56.57.53.53,0,0,0,.52.57A.58.58,0,0,0,6.75,7.3Zm1.89-.06a.54.54,0,0,0-.55-.55.55.55,0,0,0-.54.59.54.54,0,0,0,.54.55A.56.56,0,0,0,8.64,7.24Zm-1.88.32c.16.35.4.32.57.19.5-.37-.11-.51-.22-.77l.38-.08a.35.35,0,0,0-.55-.12c-.36.33,0,.5.24.74L7,7.56ZM9.34,6.31c-.39-.08-.43,0-.55.21s.08.7,0,1.05c0,.06.08.13.13.2a1.2,1.2,0,0,0,.13-.21c0-.18,0-.37,0-.55l.06-.41-.07,0ZM4.9,7,5,6.84c-.12,0-.25-.15-.36-.14a.51.51,0,0,0-.48.54.51.51,0,0,0,.4.57c.17.05.37.06.42-.25-.25,0-.58.07-.54-.33S4.67,7,4.9,7Zm4.64-.54c-.09.17-.23.3-.22.42a5.08,5.08,0,0,0,.19.86s.15.09.24.11a.18.18,0,0,0,.13-.08.16.16,0,0,0,0-.15c-.32-.27-.16-.52,0-.76ZM5.7,6.92l0-.15a1.35,1.35,0,0,0-.4,0,.27.27,0,0,0-.18.19,1.71,1.71,0,0,0,0,.55.7.7,0,0,0,.15.28c0-.1.15-.2.15-.29C5.36,7.22,5.36,7,5.7,6.92Zm-4.64,5h.15c.08-.13.25-.27.23-.37a.49.49,0,0,0-.34-.3c-.08,0-.27.19-.27.3S1,11.81,1.06,11.93Zm3-4.66c-.08-.19-.15-.36-.21-.52a2,2,0,0,0-.12.52,1.8,1.8,0,0,0,.11.5Z"/></g></g></svg>