<svg xmlns="http://www.w3.org/2000/svg" viewBox="0 0 24.18 29.28"><defs><style>.cls-1{fill:#009fe3;}</style></defs><title>Recurso 22</title><g id="Capa_2" data-name="Capa 2"><g id="Capa_1-2" data-name="Capa 1"><path class="cls-1" d="M16,28.38c-.47-.37-.77-.41-1.09,0a2.84,2.84,0,0,1-3.09.77,36.24,36.24,0,0,0-8-1.06s-.08,0-.23-.06a18.4,18.4,0,0,1,5.28-.13,12.71,12.71,0,0,0-5-1.3c.25.22.5.44.76.65l0,.08-1.73-.89,0-.16,3.49.22c-.38-.58-.42-1.34-1.17-1.75A18.84,18.84,0,0,1,3,23.18c-.31-.24-.66-.41-.76-.86,0-.15-.28-.29-.46-.36a.7.7,0,0,1-.51-.79c0-1.73-.05-3.45-.08-5.18,0-.11,0-.25,0-.33A1.84,1.84,0,0,1,1,14.08S1,14,1,14C.14,13.8.13,13.8.19,13c0-.66.12-1.32.19-2l1.27.27a1.77,1.77,0,0,0,0-2c-.15-.25-.51-.39-.6-.65s.07-.64,0-1C.83,6.6.55,5.66.31,4.71.18,4.22.09,3.73,0,3.23c0-.11.08-.24.12-.37.11.05.26.07.32.16.31.4.6.81.88,1.23.16.24.29.51.48.84L3,3.34c.25-.38.5-.65,1-.32a.75.75,0,0,0,.58,0c.74-.27,1.47-.58,2.21-.86C7,2,7.28,2,7.52,1.91L7.65,2a3.35,3.35,0,0,1-.27.67,2.63,2.63,0,0,1-.61.59.81.81,0,0,0-.3,1.15c.09.19.14.39.23.62l.78-.47L11,2.35a4.57,4.57,0,0,1,.68-.26l.08.18-3,2a3.05,3.05,0,0,0,.31.26.5.5,0,0,1,.07.82A12.35,12.35,0,0,0,6.74,8.87a1.33,1.33,0,0,1-.53.59,2.65,2.65,0,0,0-1.37,2c0,.14-.06.28-.1.48l1.75.48c-.18.74-.35,1.44-.53,2.16l-.53.06c0,.26.07.49.13.84.25-.35.44-.64.65-.9A20.55,20.55,0,0,1,8,12.49a4.84,4.84,0,0,1,4.43-1.26,3.24,3.24,0,0,1,1.85,1.09.87.87,0,0,0,.84.32,2.77,2.77,0,0,1,2.64,1.07c.45.55.84,1.14,1.35,1.84-.06-.7-.69-1.29,0-1.87-.58.06-.73-.33-.92-.68-.32-.62-.66-1.22-1-1.89l1.71-.57a2.42,2.42,0,0,0-1.52-2c-.55-.27-1-.65-1.59-.93s-1.29-.57-1.94-.86c-.22-.1-.43-.23-.67-.36.52-1,1.54-.65,2.3-1-.16-.18-.3-.37-.47-.53L13.21,3.21C13,3,12.8,2.83,13,2.52a.57.57,0,0,1,.8-.2A13.75,13.75,0,0,0,15.12,3L14,1.76A1,1,0,0,1,14.17.17a1.25,1.25,0,0,1,1.26.11l2.64,1.6.5.28L18,.89c-.12-.29-.25-.59.1-.8s.62,0,.81.26A10.79,10.79,0,0,1,21.2,6.62a9.45,9.45,0,0,0,.72,2.77c0,.09.32.18.46.14.57-.14,1.12-.32,1.8-.53-.1.88-.14,1.71-.29,2.52,0,.22-.38.38-.62.61.67.46.66,1.16.68,1.86,0,.31.1.63.08.94a3.13,3.13,0,0,1-.19,1.19,22.56,22.56,0,0,0-1.7,5.81,20.65,20.65,0,0,1-.62,2.27c0,.09,0,.19-.05.35l.92-.1-1,1.05c.07-.24.11-.37.16-.57l-1.17.52-3,1.39c-.49.22-.55.4-.35.93a23.79,23.79,0,0,1,5.52-2.12l-1.11.86.59,0v.05c-1.18.39-2.38.75-3.55,1.18s-2.31.95-3.47,1.42L15,29Zm-3.22-9.91c-.1,0-.15,0-.19,0a10.86,10.86,0,0,1-3.73.74A4.88,4.88,0,0,0,6.56,20a.52.52,0,0,0-.2.77c.2.36.38.73.59,1.08a1,1,0,0,0,.27.23,6.64,6.64,0,0,1,.73.55,7,7,0,0,0,.77.77,6.83,6.83,0,0,1,2.11,2.2,1.79,1.79,0,0,0,2.06.88l1.2-.26A3.22,3.22,0,0,0,16.45,24a5.06,5.06,0,0,0,.12-.59h-.65A6.17,6.17,0,0,0,17,22.72a6,6,0,0,1,1.54-1.39A.93.93,0,0,0,19,20.11l-.61,1a.35.35,0,0,1,0-.32c.16-.41,0-.59-.4-.69a6.41,6.41,0,0,1-3.61-2.47A2.33,2.33,0,0,1,12.14,19Zm.81-12.18a2.28,2.28,0,0,0,.42.27A13.08,13.08,0,0,1,17,7.91a6,6,0,0,0,.85.28c.14.05.33.09.41.2a3.5,3.5,0,0,1,1,1.67c0,.11.27.31.36.29.65-.17,1.28-.39,2-.6-.28-.68-.56-1.3-.78-1.93a3.17,3.17,0,0,1-.11-.88c0-.58.06-1.17,0-1.74A11.16,11.16,0,0,0,18.88.8a2.5,2.5,0,0,0-.51-.46l-.11.1c.13,1,.9,1.75.84,2.81L18.19,3c.18-.43-.06-.67-.37-.87C16.93,1.57,16,1,15.14.5a1.75,1.75,0,0,0-.57-.11l-.05.14c1,.94,2.24,1.67,3.23,2.65l-.09.1L14.27.9l-.17.16a6.59,6.59,0,0,0,.51.75c.65.73,1.33,1.44,2,2.17a3.48,3.48,0,0,1,.34.51l-.09.08L13.57,2.7l-.1.14c.1.12.18.25.28.35.6.59,1.23,1.15,1.8,1.76A1.24,1.24,0,0,0,17,5.31a2,2,0,0,1,.35-.06A2.15,2.15,0,0,1,15.84,6c-.55,0-1.11,0-1.66.1A3.36,3.36,0,0,0,13.55,6.29ZM4.3,11.9c.24-.59.45-1.18.72-1.74a4.37,4.37,0,0,1,.62-.92c.32-.38.72-.71,1-1.11C7.32,7.24,8,6.32,8.58,5.38c.11-.16.07-.42.1-.64a1.65,1.65,0,0,0-.51.08C6.3,5.88,4.43,6.94,2.59,8c-.83.49-.92.29-.34,1.35a1.16,1.16,0,0,1,0,1.29,2.61,2.61,0,0,0-.21.65Zm-2-5.45H2.2L2,6.07C1.54,5.3,1.12,4.53.67,3.76.61,3.66.48,3.6.38,3.52a1.23,1.23,0,0,0,0,.37c.24.86.5,1.72.75,2.58L1.55,8,4.91,6.08l-1.05-.7-.31.29-.11,0c.06-.27.12-.53.2-.85.49.34.89.62,1.3.89a.47.47,0,0,0,.74-.14C5,4.83,4.4,4.12,3.73,3.43c0-.06-.35,0-.44.11a4.46,4.46,0,0,0-.47.72C2.43,4.93,1.71,5.51,2.34,6.45Zm15.54,4.94c.3.53.58,1,.81,1.46.15.3.3.32.6.21,1.22-.44,2.46-.86,3.69-1.29.68-.23.77-.4.65-1.07l-.66.08c0-.12,0-.34,0-.35a4,4,0,0,1,.72-.09c0-.12,0-.37.05-.69ZM.49,13.48l.57.12c1.35.18,2.71.38,4.07.54.19,0,.53,0,.58-.13a6.22,6.22,0,0,0,.35-1.21s-.14-.11-.23-.13L.73,11.33C.65,12.05.57,12.73.49,13.48ZM10,25.09c-.08.44-.12.74-.18,1s0,.41-.11.54A1.42,1.42,0,0,0,9.52,28c.11.42.27.47.64.24l1.27-.73.7-.37,0-.07H10.61l0-.08.85-.23Zm1.3,3c.68.3,1.31.6,2,.88a.49.49,0,0,0,.39-.06c.39-.31.77-.64,1.15-1C14,27.19,12.67,27.24,11.28,28.06Zm2.83-1.14,0,.16c.65.26,1.28.55,2,.76.12,0,.48-.21.5-.35.09-.68.28-1.4-.32-2l-1.45,1.2c1.28.46,1.28.46,1.37.74ZM7.16,2.39l-.09-.12L4.36,3.55l.58.72A6.77,6.77,0,0,0,7.16,2.39ZM20.71,25c.46-.42,1.5-4.76,1.37-5.58,0,.15-.09.26-.12.38a9.06,9.06,0,0,1-1.06,3.3A2.75,2.75,0,0,0,20.71,25ZM1.77,14.1H1.53c0,.33-.06.66,0,1,.06.93.15,1.85.22,2.78,0,.39.05.78.07,1.16H2ZM6,5.46c.54-.38.51-.69-.09-1.46l-.72.52ZM5.88,16.09l.12.08,1.23-2A3.56,3.56,0,0,0,5.88,16.09Zm12.77.61-.16.08.72,1.49.17-.09C19.14,17.69,18.89,17.2,18.65,16.7Zm-1.57-3.15-.12.09L18,15l.11-.1Zm5.51.9,1.13.75A1,1,0,0,0,22.59,14.45Z"/><path class="cls-1" d="M12.42,22.89c.6-.11.7-.83,1.34-.67-.08.12-.14.23-.21.32-.83,1.16-.89,1.17-1.85.28a7.89,7.89,0,0,0,.13-1.46.79.79,0,0,0-.83-.72c-.75-.05-1.51-.13-2.26-.2l-.26-.06a.82.82,0,0,1,.89-.47,13,13,0,0,1,1.53.18,1.21,1.21,0,0,0,1.5-.7c0,.1.1.21.08.3a1.08,1.08,0,0,1-.17.4,1.14,1.14,0,0,0-.08,1.17,2.93,2.93,0,0,1,.1.9C12.35,22.39,12.39,22.63,12.42,22.89Z"/><path class="cls-1" d="M16.73,20.49l-2,.43c.7.51,1.35,0,2,0a1,1,0,0,1-1.36.68c-.5-.16-1.11-.17-1.33-.82,0-.09-.25-.11-.38-.18a.84.84,0,0,1-.39-1.21c.28.75.44.86,1.27.88l1.83,0a2.11,2.11,0,0,1,.35.05Z"/><path class="cls-1" d="M14.32,23.58c-.08.08-.12.16-.16.16-.69,0-1.32.52-2.06.21a2,2,0,0,0-.76,0l-.6.07a1.41,1.41,0,0,1,1.49-.52,2.58,2.58,0,0,0,.92,0C13.53,23.5,13.91,23.3,14.32,23.58Z"/><path class="cls-1" d="M13.92,24.72c-1-.23-2-.23-2.34,1.05a.77.77,0,0,1,0-1.1A2,2,0,0,1,13.92,24.72Z"/><path class="cls-1" d="M8.71,21.13a5.63,5.63,0,0,1,2.68-.05A2.37,2.37,0,0,1,8.71,21.13Z"/><path class="cls-1" d="M6.68,20.42c.23.43.44.8.66,1.23C6.53,21.23,6.38,21,6.68,20.42Z"/><path class="cls-1" d="M2.05,12.6c-.38.14-.48.75-.92.34C1,12.8.91,12.33,1,12.24,1.44,11.86,1.65,12.38,2.05,12.6Z"/></g></g></svg>