<svg xmlns="http://www.w3.org/2000/svg" viewBox="0 0 29.07 17.29"><defs><style>.cls-1{fill:#009fe3;}.cls-2{fill:#d2d2c7;}</style></defs><title>Recurso 26</title><g id="Capa_2" data-name="Capa 2"><g id="Capa_1-2" data-name="Capa 1"><path class="cls-1" d="M23.18,7.29V10c-.1.25-.32.3-.56.34l-1.73.26a.24.24,0,0,0-.14.12c-.12.26-.22.53-.35.79a.21.21,0,0,0,0,.24l1.08,1.38c.2.27.22.41,0,.66-.42.46-.85.91-1.29,1.36a3.91,3.91,0,0,1-.54.45.45.45,0,0,1-.66,0l-1.36-1.06a.21.21,0,0,0-.27,0c-.23.11-.47.21-.71.3a.26.26,0,0,0-.19.25c-.08.6-.18,1.19-.27,1.78a.51.51,0,0,1-.3.44H13.15a.55.55,0,0,1-.3-.45c-.08-.61-.18-1.21-.27-1.82a.19.19,0,0,0-.15-.19,6.81,6.81,0,0,1-.74-.31.23.23,0,0,0-.26,0L10,15.63c-.24.18-.43.2-.61,0-.6-.59-1.2-1.18-1.78-1.79a.46.46,0,0,1,0-.71l1-1.35a.18.18,0,0,0,0-.22q-.19-.44-.36-.87a.19.19,0,0,0-.18-.15q-.93-.12-1.86-.27a.41.41,0,0,1-.39-.43V7.38A.41.41,0,0,1,6.27,7l1.89-.29a.18.18,0,0,0,.17-.15c.1-.26.21-.51.33-.76a.21.21,0,0,0,0-.27c-.35-.44-.69-.89-1-1.34s-.25-.43,0-.71C8,3,8.38,2.58,8.79,2.16a4.55,4.55,0,0,1,.58-.49c.3-.21.41-.2.7,0l1.36,1.05a.22.22,0,0,0,.19,0c.28-.1.55-.22.82-.34a.25.25,0,0,0,.12-.15c0-.2,0-.4.09-.6.07-.46.14-.91.23-1.36A.36.36,0,0,1,13.27,0h2.52a.37.37,0,0,1,.4.35c.1.64.21,1.28.29,1.91a.22.22,0,0,0,.17.2c.25.1.49.19.73.3a.21.21,0,0,0,.26,0l1.45-1.09a.4.4,0,0,1,.59,0c.6.59,1.19,1.19,1.76,1.8.23.24.22.42,0,.69l-1,1.35a.17.17,0,0,0,0,.22c.13.29.24.58.37.87a.23.23,0,0,0,.16.13c.6.1,1.19.2,1.8.28A.52.52,0,0,1,23.18,7.29ZM17.41,8.66a2.88,2.88,0,1,0-2.88,2.86A2.86,2.86,0,0,0,17.41,8.66Z"/><path class="cls-2" d="M0,8.78c1.31,0,1.44-.72,1.44-1.29s-.06-1-.11-1.47a13.17,13.17,0,0,1-.1-1.5C1.23,2.74,2.35,2,4.11,2h.66V3.57H4.43c-.85,0-1.15.51-1.15,1.35,0,.34.05.68.09,1.08a11.69,11.69,0,0,1,.1,1.29c0,1.44-.57,2-1.61,2.19v0c1,.23,1.62.78,1.61,2.22a12.49,12.49,0,0,1-.1,1.32c0,.38-.09.74-.09,1.06,0,.84.28,1.37,1.15,1.37h.34v1.59H4.09c-1.68,0-2.86-.68-2.86-2.58A13,13,0,0,1,1.33,13c0-.52.11-1,.11-1.48S1.31,10.28,0,10.24Z"/><path class="cls-2" d="M29.07,10.24c-1.31,0-1.44.76-1.44,1.29s.06,1,.11,1.48a13,13,0,0,1,.1,1.49c0,1.9-1.18,2.58-2.86,2.58H24.3V15.49h.34c.87,0,1.15-.53,1.15-1.37,0-.32-.05-.68-.09-1.06a12.49,12.49,0,0,1-.1-1.32c0-1.44.57-2,1.61-2.22v0c-1-.22-1.63-.75-1.61-2.19A11.69,11.69,0,0,1,25.7,6c0-.4.09-.74.09-1.08,0-.84-.3-1.35-1.15-1.35H24.3V2H25c1.76,0,2.88.78,2.88,2.56a13.17,13.17,0,0,1-.1,1.5c0,.51-.11,1-.11,1.47s.13,1.25,1.44,1.29Z"/></g></g></svg>