<svg xmlns="http://www.w3.org/2000/svg" viewBox="0 0 28.65 25.21"><defs><style>.cls-1{fill:#009fe3;}</style></defs><title>Recurso 18</title><g id="Capa_2" data-name="Capa 2"><g id="Capa_1-2" data-name="Capa 1"><path class="cls-1" d="M18.51,5.05c1.3-2.86,4.9-4.38,6.94-3.7a.47.47,0,0,1-.06.09,6.16,6.16,0,0,0-1.73,3.68,7,7,0,0,1-.47,1.79A3.84,3.84,0,0,1,20.05,9.3a10.86,10.86,0,0,1-1.28.09.33.33,0,0,1-.23-.15c-.11-.21-.19-.44-.3-.7l-.94.36a.19.19,0,0,0-.09.11c-.09.24-.16.48-.25.75l1.17.14a50.08,50.08,0,0,1,8,1.46c.48.15.94.35,1.41.54a1.91,1.91,0,0,1,1.15,1.8,3.13,3.13,0,0,1-.05.81,2,2,0,0,1-1.85,1.59c-.17,0-.23,0-.21.24a1,1,0,0,1-.4.87,3,3,0,0,1-1.94.72c-.33,0-.66,0-1-.06a1.52,1.52,0,0,1-1.22.85,3.07,3.07,0,0,1-2.5-.5,1.53,1.53,0,0,1-1.58.57,4,4,0,0,1-1.69-.48l.11.19c.43.79.88,1.57,1.3,2.37a1.7,1.7,0,0,1,0,1.58.85.85,0,0,1-.58.54.22.22,0,0,0-.12.13,1.81,1.81,0,0,1-1.81,1.38,1.47,1.47,0,0,0-1.13.37,1.76,1.76,0,0,1-1.85.16.71.71,0,0,0-.65,0,1.46,1.46,0,0,1-1.77-.7c-.28-.67-.52-1.36-.78-2,0-.07,0-.14-.09-.23a.37.37,0,0,0-.07.1,2.3,2.3,0,0,1-3.12,1.08,6.39,6.39,0,0,1-2.11-1.75A15,15,0,0,1,.24,14.28,12.43,12.43,0,0,1,1,6.9,11.05,11.05,0,0,1,9.75.12a6.69,6.69,0,0,1,4,.45,6.34,6.34,0,0,1,3.36,3.91c.06.16.12.26.31.28a3.53,3.53,0,0,1,.54.13Zm8.16,8.4a1,1,0,0,0-.66-.78,9.89,9.89,0,0,0-1.2-.39,59.66,59.66,0,0,0-8.41-1.36.38.38,0,0,0-.39.17,6.42,6.42,0,0,1-.43.48,4.29,4.29,0,0,0-.4.55,8.41,8.41,0,0,1-1.8,2.35A5.7,5.7,0,0,1,9,16.09c-.61-.05-1.2-.22-1.81-.33-.08,0-.2,0-.26,0a3,3,0,0,1-1.17.46,5.94,5.94,0,0,1-3.46-.33l-.17-.05v.06l.08.18a9.86,9.86,0,0,0,7.2,5.58,6.77,6.77,0,0,0,2.8.06,4.41,4.41,0,0,0,2.68-1.81,3.06,3.06,0,0,0,.76-2.6,5.52,5.52,0,0,0,.72.38,5.44,5.44,0,0,0,.82.19,1.4,1.4,0,0,0,1.58-.66l.21.09a3.29,3.29,0,0,0,1.6.27,1.62,1.62,0,0,0,1-.38.73.73,0,0,0,.19-.75l.4.09a2.21,2.21,0,0,0,1.69-.23.84.84,0,0,0,.36-1.15s0,0,0-.1a2.17,2.17,0,0,0,2.29-.63v-.1l-8.4-1.64v-.07Zm-18.09-7A2.51,2.51,0,1,0,11.1,4,2.51,2.51,0,0,0,8.58,6.47Zm11.57-.6A6.09,6.09,0,0,1,22.6,3a12.3,12.3,0,0,0-2.07,3.09l1.52,1.28a2.82,2.82,0,0,0,.56-1.12c.16-.58.28-1.17.41-1.77A4.8,4.8,0,0,1,24.07,2s0,0,0,0a6,6,0,0,0-4.83,3.37ZM15.63,7.5a2.92,2.92,0,0,0,1.89-.17A3.9,3.9,0,0,1,20,7.21l.93.25a7.61,7.61,0,0,0-1-.81,6.77,6.77,0,0,0-3.52-1.29.34.34,0,0,0-.35.17,3.37,3.37,0,0,0-.38,3.09,1.76,1.76,0,0,0,.09.2l.28-.15c.58-.26,1.17-.53,1.76-.78.26-.11.27-.09.19-.4-.15,0-.29.09-.44.12-.41.07-.82.15-1.23.18A.83.83,0,0,1,15.63,7.5Zm3.16-.15a2.91,2.91,0,0,0,.26,1.17.23.23,0,0,0,.2.08,4.34,4.34,0,0,0,2-.52,1.73,1.73,0,0,0,.22-.15l-1.17-.32c-.41-.1-.41-.1-.62.26h-.05l0-.41Z"/><path class="cls-1" d="M12.59,6.49a1.51,1.51,0,0,1-3,0,1.51,1.51,0,1,1,3,0Zm-1.51-.06a4.32,4.32,0,0,0,.69-.28.39.39,0,0,0,0-.67,1.24,1.24,0,0,0-1.39,0,.39.39,0,0,0,0,.67A4,4,0,0,0,11.08,6.43Z"/></g></g></svg>