<svg xmlns="http://www.w3.org/2000/svg" viewBox="0 0 17.32 21.27"><defs><style>.cls-1,.cls-2{fill:#009fe3;}.cls-2{font-size:5.95px;font-family:MyriadPro-Semibold, Myriad Pro;font-weight:600;}</style></defs><title>Recurso 9</title><g id="Capa_2" data-name="Capa 2"><g id="Capa_1-2" data-name="Capa 1"><path class="cls-1" d="M4.08,12.25V10.8h8v1.45Z"/><path class="cls-1" d="M4.11,14.88h8v1.48h-8Z"/><path class="cls-1" d="M8.06,6.71V8.17h-4V6.71Z"/><path class="cls-1" d="M9.84,6.08V8.26h4V18.85H2.43V4.12H8.82a4.21,4.21,0,0,1-.12-1A4.44,4.44,0,0,1,8.9,1.8H0V21.27H16.14c.05-.1.1-.16.1-.22,0-4.12,0-8.25,0-12.37a1.51,1.51,0,0,0-1.63-1.37,4.51,4.51,0,0,1-1.48.25A4.41,4.41,0,0,1,9.84,6.08Z"/><text class="cls-2" transform="translate(9.46 4.98)">C #</text></g></g></svg>