<svg xmlns="http://www.w3.org/2000/svg" viewBox="0 0 15.2 17.25"><defs><style>.cls-1{fill:#009fe3;}</style></defs><title>Recurso 2</title><g id="Capa_2" data-name="Capa 2"><g id="Capa_1-2" data-name="Capa 1"><path class="cls-1" d="M7.66,17.25H7.52a.84.84,0,0,0-.14-.06L3.53,16.12l-2-.56c-.07,0-.13,0-.14-.13C1.24,14,1.11,12.57,1,11.13L.75,8.49C.63,7.11.51,5.73.38,4.35.27,3.15.17,2,.06.75L0,0H15.19a.09.09,0,0,1,0,.05c-.06.76-.13,1.52-.2,2.27S14.84,4,14.77,4.9l-.21,2.39c-.08.85-.16,1.71-.23,2.56s-.16,1.77-.23,2.65-.18,1.91-.26,2.87a.18.18,0,0,1-.16.19l-2.89.8L8.6,17Zm-4-4.39.36.11,3.15.87a.89.89,0,0,0,.51.08l1.62-.45,2.05-.57c.1,0,.13-.07.14-.17.05-.68.11-1.35.17-2,.09-1,.19-2.1.29-3.15L12,7H5.26c-.14,0-.19,0-.2-.17C5,6.47,5,6.09,5,5.71l0-.64H12c.12,0,.16,0,.17-.15,0-.52.09-1,.14-1.57,0-.19,0-.19-.16-.19H2.82C3,5.09,3.17,7,3.34,8.92H9.92a.65.65,0,0,1,0,.14c-.06.74-.13,1.49-.19,2.23a.13.13,0,0,1-.12.14l-1.92.51a.37.37,0,0,1-.21,0l-1.89-.51c-.09,0-.12-.07-.13-.16,0-.42-.08-.85-.11-1.27,0-.1,0-.13-.14-.13q-.83,0-1.65,0c-.11,0-.14,0-.13.15,0,.33.06.66.09,1C3.58,11.62,3.63,12.24,3.69,12.86Z"/></g></g></svg>