<svg xmlns="http://www.w3.org/2000/svg" viewBox="0 0 21.42 21.15"><defs><style>.cls-1{fill:#009fe3;}</style></defs><title>Recurso 27</title><g id="Capa_2" data-name="Capa 2"><g id="Capa_1-2" data-name="Capa 1"><path class="cls-1" d="M7.59,8.43c2.71-2.72,5.36-5.35,8-8A1,1,0,0,1,16.88.13c1.32.58,2.66,1.12,4,1.64a.71.71,0,0,1,.53.77q0,8,0,16a.75.75,0,0,1-.58.82c-1.4.52-2.79,1.07-4.16,1.67a.85.85,0,0,1-1.11-.26c-2.46-2.47-4.94-4.91-7.4-7.38a4.19,4.19,0,0,1-.47-.69c-1.78,1.37-3.4,2.59-5,3.86a1,1,0,0,1-1.15.15A2.1,2.1,0,0,1,0,14.25c.11-2.79,0-5.59,0-8.38,0-.52.21-.72.61-1a2.05,2.05,0,0,1,2.9.34C4.78,6.36,6.19,7.33,7.59,8.43ZM16.05,15V6.22l-5.53,4.37ZM2.18,7.62v5.85l3-2.83Z"/></g></g></svg>