<svg xmlns="http://www.w3.org/2000/svg" viewBox="0 0 19.74 20.12"><defs><style>.cls-1{fill:#009fe3;}.cls-2{fill:#d2d2c7;}</style></defs><title>Recurso 30</title><g id="Capa_2" data-name="Capa 2"><g id="Capa_1-2" data-name="Capa 1"><path class="cls-1" d="M8.79,11.46c-.17-.19-.24-.28-.33-.37C6.6,9.18,4.74,7.26,2.87,5.36A2.65,2.65,0,0,0,2.19,5a2.51,2.51,0,0,1-.67-.41C1,4,.61,3.44.15,2.88a.45.45,0,0,1,0-.7c.11-.09.2-.24.32-.29a.56.56,0,0,1,.45,0c.66.5,1.32,1,2,1.57.16.14.19.41.3.61a1.94,1.94,0,0,0,.33.58c1.93,1.91,3.88,3.81,5.83,5.71.06.06.13.1.32.26.15-.2.29-.42.45-.61a.89.89,0,0,1,1.56.54,1.84,1.84,0,0,0,1.66,1.75,1.64,1.64,0,0,1,.93.5c1.12,1.14,2.25,2.26,3.37,3.38a1.84,1.84,0,0,1,0,2.82L17,19.6a1.79,1.79,0,0,1-2.53,0c-1.23-1.22-2.46-2.45-3.67-3.69a1.38,1.38,0,0,1-.31-.67A1.91,1.91,0,0,0,8.73,13.5a.89.89,0,0,1-.8-.6A.83.83,0,0,1,8.15,12C8.34,11.79,8.57,11.64,8.79,11.46Z"/><path class="cls-2" d="M12.48,9.78a1.87,1.87,0,0,0-2.89-.56l-.89-1c.61-.6,1.25-1.29,2-1.92a1.82,1.82,0,0,0,.64-1.73A4.15,4.15,0,0,1,14.49.11,4.12,4.12,0,0,1,18.2,1l-.33.21L15,2.83a.48.48,0,0,0-.31.51c0,.42,0,.85,0,1.27a.66.66,0,0,0,.23.43c.36.25.75.45,1.11.69a.47.47,0,0,0,.54,0l2.67-1.48L19.62,4l.12,0a10.86,10.86,0,0,1-.22,1.39,4.17,4.17,0,0,1-4.84,2.92,1.19,1.19,0,0,0-1.21.38Z"/><path class="cls-2" d="M7.77,14.33,5.2,16.89l-2,2a1.84,1.84,0,0,1-2.69.06,1.88,1.88,0,0,1,0-2.7c1.84-1.85,3.69-3.69,5.53-5.53l.19-.17.89.9C6.5,12.81,6.6,13.33,7.77,14.33Z"/></g></g></svg>