<svg xmlns="http://www.w3.org/2000/svg" viewBox="0 0 24.5 24.48"><defs><style>.cls-1{fill:#b8b7ad;}</style></defs><title>Recurso 5</title><g id="Capa_2" data-name="Capa 2"><g id="Capa_1-2" data-name="Capa 1"><path class="cls-1" d="M1.21,11.3a5,5,0,0,1,0-6.54c1.7-1.94,3.93-2.18,6.87-.7,1.39-2.81,3.59-4.32,6.77-4A6,6,0,0,1,20.2,4.12c1.1,2.87.31,5.36-1.93,7.45l.38.54c.11.17.21.35.35.6l2.52-.83c.31-.1.62-.22.93-.31a1.5,1.5,0,0,1,2,1.5c0,1.92,0,3.84,0,5.76,0,.78,0,1.56,0,2.33,0,1.44-.9,2.08-2.25,1.63l-3.08-1c-.05.16-.07.25-.1.35a3,3,0,0,1-3,2.35q-6.54,0-13.06,0a3,3,0,0,1-3-3c0-2.51,0-5,0-7.54A3.22,3.22,0,0,1,1.21,11.3ZM9.55,23h6.38a1.5,1.5,0,0,0,1.68-1.65c0-2.47,0-4.95,0-7.42a1.53,1.53,0,0,0-1.68-1.68c-4.23,0-8.46,0-12.7,0A1.55,1.55,0,0,0,1.52,14q0,3.64,0,7.29A1.53,1.53,0,0,0,3.23,23Zm4.59-11.51a5,5,0,1,0-5-5A5,5,0,0,0,14.14,11.46ZM23,13c-1.46.49-2.88.94-4.27,1.43a.66.66,0,0,0-.32.49q0,2.3,0,4.59c0,.16.1.41.21.45,1.43.5,2.88,1,4.38,1.47ZM5,11.46A3.45,3.45,0,1,0,1.52,8,3.42,3.42,0,0,0,5,11.46Z"/><path class="cls-1" d="M17.6,6.47a3.44,3.44,0,0,1-3.47,3.46,3.48,3.48,0,0,1-3.41-3.47,3.44,3.44,0,0,1,6.88,0Z"/><path class="cls-1" d="M3.07,8A1.88,1.88,0,0,1,5,6.12,1.9,1.9,0,0,1,6.88,8,1.94,1.94,0,0,1,5,9.92,1.9,1.9,0,0,1,3.07,8Z"/></g></g></svg>