<svg xmlns="http://www.w3.org/2000/svg" viewBox="0 0 14.27 14.74"><defs><style>.cls-1{fill:#009fe3;}</style></defs><title>Recurso 37</title><g id="Capa_2" data-name="Capa 2"><g id="Capa_1-2" data-name="Capa 1"><path class="cls-1" d="M12.74,0q.76,2.84,1.52,5.68A.48.48,0,0,1,14.2,6c-.22.4-.47.79-.68,1.19a.4.4,0,0,0,0,.34c.22.4.47.78.69,1.18a.59.59,0,0,1,.05.39c-.47,1.81-1,3.61-1.45,5.42,0,.07-.05.13-.08.21l-4-1.09c-.54-.14-1.08-.27-1.62-.43A.61.61,0,0,1,6.8,13c-.23-.38-.43-.77-.66-1.14a.42.42,0,0,0-.27-.16H4.46a.48.48,0,0,1-.29-.1L0,7.44l0-.07.17-.19L4.05,3.3a.67.67,0,0,1,.56-.23c.39,0,.78,0,1.18,0a.33.33,0,0,0,.36-.21c.21-.4.45-.8.68-1.19a.4.4,0,0,1,.22-.17L11,.47,12.69,0Zm-.8,2.82a2.25,2.25,0,0,0-.15.19Q10.59,5.1,9.38,7.17a.36.36,0,0,0,0,.42l2.15,3.73c.11.19.23.37.37.59l.06-.12c.32-1.13.62-2.26.95-3.38A2.36,2.36,0,0,0,13,6.64a3.37,3.37,0,0,1-.1-.34C12.59,5.16,12.27,4,11.94,2.82Zm-1.23-.66c-.16,0-.24,0-.32,0L6.26,3.26A.55.55,0,0,0,6,3.4l-2.9,3c-.07.07-.13.16-.23.27l.19,0c1.63,0,3.25,0,4.88,0a.41.41,0,0,0,.28-.19c.59-1,1.17-2,1.74-3ZM2.87,8.11,3,8.28,4.63,9.94c.42.43.83.87,1.26,1.3a1.19,1.19,0,0,0,.46.27l3.62.94c.22.06.44.09.72.15a2.58,2.58,0,0,0-.16-.33C9.77,11,9,9.64,8.26,8.32a.4.4,0,0,0-.41-.24H3.2Z"/></g></g></svg>