<svg xmlns="http://www.w3.org/2000/svg" viewBox="0 0 20.78 12.16"><defs><style>.cls-1{fill:#009fe3;}</style></defs><title>Recurso 36</title><g id="Capa_2" data-name="Capa 2"><g id="Capa_1-2" data-name="Capa 1"><path class="cls-1" d="M0,1.09C.45,1,.9.85,1.35.79a5.09,5.09,0,0,1,3.53.87A7,7,0,0,1,7.37,4.71a9.72,9.72,0,0,1,.89,3.11v.09H8.2A5.63,5.63,0,0,0,5.56,6.12c-.89-.3-1.79-.55-2.69-.83A3.77,3.77,0,0,1,0,2.09S0,2,0,2Z"/><path class="cls-1" d="M4.11,12.16A5.75,5.75,0,0,1,5.35,7.92c.3-.41.59-.83.9-1.26A4.71,4.71,0,0,1,8.2,8.16a.4.4,0,0,1,.05.26,4.28,4.28,0,0,1-3.46,3.65l-.33.09Z"/><path class="cls-1" d="M8.45,7.94a12.05,12.05,0,0,0-1-4.26A2.43,2.43,0,0,1,8,.93,3,3,0,0,1,9.55,0a.66.66,0,0,1,.59.12,3.17,3.17,0,0,1,1.19,2.07,4.54,4.54,0,0,1-.74,3.18,13.31,13.31,0,0,1-2.06,2.5S8.5,7.91,8.45,7.94Z"/><path class="cls-1" d="M15.57,7.9V4.16a1,1,0,0,1,1.13-1V8.83a1.7,1.7,0,0,1-1,1.7,2.58,2.58,0,0,1-1.29.13c-.52-.06-1-.14-1.55-.21a.43.43,0,0,1-.12,0,1,1,0,0,1,1.18-.93,4,4,0,0,0,1,.11c.52,0,.69-.23.62-.75-.31,0-.62.05-.93.05a1.74,1.74,0,0,1-1.84-1.83c0-1.26,0-2.53,0-3.8,0,0,0,0,0,0a1,1,0,0,1,1.11.94c0,.95,0,1.9,0,2.85,0,.68.32,1,1,1Z"/><path class="cls-1" d="M17.59,6V3.43c0-.25,0-.28.29-.28h.57c.2,0,.27.08.27.28V8.51c0,.27,0,.31-.32.31h-.5c-.27,0-.31,0-.31-.32Z"/><path class="cls-1" d="M19.64,6c0-.85,0-1.7,0-2.55,0-.2.06-.29.26-.28h.62a.22.22,0,0,1,.25.25V8.46c0,.32,0,.36-.36.36H20c-.31,0-.33,0-.33-.31Z"/><path class="cls-1" d="M20.2,2.81a.58.58,0,0,1-.59-.58.58.58,0,0,1,.6-.58.56.56,0,0,1,.57.59A.55.55,0,0,1,20.2,2.81Z"/><path class="cls-1" d="M18.15,2.81a.57.57,0,0,1-.58-.57.59.59,0,1,1,1.17,0A.57.57,0,0,1,18.15,2.81Z"/></g></g></svg>