<svg xmlns="http://www.w3.org/2000/svg" viewBox="0 0 14.6 13.92"><defs><style>.cls-1{fill:#009fe3;}</style></defs><title>Recurso 38</title><g id="Capa_2" data-name="Capa 2"><g id="Capa_1-2" data-name="Capa 1"><path class="cls-1" d="M0,5.6c.07-.31.12-.62.2-.93A6.36,6.36,0,0,1,1.75,2c-.13.56-.29,1.08-.37,1.62a6.42,6.42,0,0,0,.78,4,8.17,8.17,0,0,0,6.49,4.43,6.33,6.33,0,0,0,4.86-1.22c.24-.18.46-.4.73-.64a.48.48,0,0,1,0,.18,6.56,6.56,0,0,1-4.89,3.42A8.17,8.17,0,0,1,.16,7.51C.1,7.22.05,6.93,0,6.65Z"/><path class="cls-1" d="M5.5.8c-.09.4-.18.78-.25,1.16A3.84,3.84,0,0,0,5.5,4.08,6,6,0,0,0,11.79,8,4.16,4.16,0,0,0,14.31,6.8c.1-.09.16-.22.29-.29a4,4,0,0,1-1.42,1.87,5.51,5.51,0,0,1-3.35.92A5.87,5.87,0,0,1,4.35,4.52,4.38,4.38,0,0,1,5.5.8Z"/><path class="cls-1" d="M14.16,3.87a2.81,2.81,0,0,1-2.63,1.4A3.78,3.78,0,0,1,8.18,2.93,2.72,2.72,0,0,1,8.66,0a3.29,3.29,0,0,0,1.58,3.83A3.21,3.21,0,0,0,14.16,3.87Z"/></g></g></svg>