<svg xmlns="http://www.w3.org/2000/svg" viewBox="0 0 33.18 28.6"><defs><style>.cls-1{fill:#009fe3;}</style></defs><title>Recurso 41</title><g id="Capa_2" data-name="Capa 2"><g id="Capa_1-2" data-name="Capa 1"><path class="cls-1" d="M33.18,12.93V24.14c0,.13-.08.26-.11.39A5.14,5.14,0,0,1,28,28.6H5.22a6.12,6.12,0,0,1-1-.08A5.16,5.16,0,0,1,0,23.37c0-3.35,0-6.7,0-10V13l.29.09,4.59,1.5,8.65,2.84c.2.06.28.14.26.35s0,.48,0,.72a1.44,1.44,0,0,0,1.34,1.41q1.44,0,2.88,0a1.35,1.35,0,0,0,1.27-1,3.27,3.27,0,0,0,.08-1,.41.41,0,0,1,.34-.5c2.93-.94,5.85-1.9,8.77-2.86Z"/><path class="cls-1" d="M33.18,9.05V11.9l-13.8,4.52c0-.4,0-.74,0-1.09a1.43,1.43,0,0,0-1.31-1.5,22.9,22.9,0,0,0-2.87,0,1.45,1.45,0,0,0-1.4,1.59v1l-.26-.05L.24,12c-.17-.06-.24-.12-.24-.31,0-.76,0-1.51,0-2.27a3.64,3.64,0,0,1,.09-.73A5.14,5.14,0,0,1,5.22,4.58H9.79A3.63,3.63,0,0,1,10.62,2,5.29,5.29,0,0,1,13.7.31a13.57,13.57,0,0,1,4-.27,8.77,8.77,0,0,1,3.55.88,3.86,3.86,0,0,1,2.16,2.85,7,7,0,0,1,.07.81h.38c1.37,0,2.74,0,4.11,0a5,5,0,0,1,4.74,3.06A10.4,10.4,0,0,1,33.18,9.05ZM21.4,4.57a1.59,1.59,0,0,0-.25-1.11,2.65,2.65,0,0,0-1.57-1,11.36,11.36,0,0,0-5.28-.17,3.9,3.9,0,0,0-1.85.8,1.56,1.56,0,0,0-.58,1.49Z"/><path class="cls-1" d="M18.39,16.85c0,.46,0,.91,0,1.36s-.2.68-.69.68H15.44c-.44,0-.64-.19-.65-.63q0-1.43,0-2.85c0-.42.21-.6.63-.6h2.33c.45,0,.64.2.64.66S18.39,16.39,18.39,16.85Z"/></g></g></svg>