<svg xmlns="http://www.w3.org/2000/svg" viewBox="0 0 15.8 16.43"><defs><style>.cls-1{fill:#009fe3;}</style></defs><title>Recurso 11</title><g id="Capa_2" data-name="Capa 2"><g id="Capa_1-2" data-name="Capa 1"><path class="cls-1" d="M9.71,15v1.41l-.83-.11L6.39,16l-2.47-.34L1.49,15.3l-1.4-.19A.18.18,0,0,1,0,15s0-.06,0-.09V1.29L9.7,0V1.37h5a1,1,0,0,1,1,.61,1.33,1.33,0,0,1,.11.56V13.88a1,1,0,0,1-.6,1,1.38,1.38,0,0,1-.57.11H9.71Zm0-.61h4.95c.37,0,.54-.16.54-.54V2.52c0-.38-.16-.54-.54-.54H9.71ZM5.39,9.07a2.54,2.54,0,0,0,.43-.44A1.9,1.9,0,0,0,6,6.72a1.5,1.5,0,0,0-2.49-.25A1.94,1.94,0,0,0,3.12,8a1.35,1.35,0,0,0,1,1.18c.45.11.85.3,1.28.45l.51.18.21-.57ZM2.63,6.15a1.53,1.53,0,0,0-1.48.08A.86.86,0,0,0,1,7.48a2.37,2.37,0,0,0,.52.35c.13.08.28.12.4.21a.3.3,0,0,1-.07.54.86.86,0,0,1-.55,0,4.13,4.13,0,0,1-.42-.14c0,.15-.06.29-.1.43s0,.15.09.18a1.8,1.8,0,0,0,1.19.09.87.87,0,0,0,.66-.68.84.84,0,0,0-.38-1c-.17-.11-.37-.19-.56-.29a1,1,0,0,1-.26-.16.25.25,0,0,1,.06-.41.63.63,0,0,1,.3-.07,4.42,4.42,0,0,1,.6.1C2.54,6.51,2.58,6.33,2.63,6.15Zm4.79-.23H6.76c-.09,0-.12,0-.12.12V9.16c0,.09,0,.13.12.13l1.94.05h.12V8.67H7.42Z"/><path class="cls-1" d="M12.19,10.94a3.3,3.3,0,0,1-1.36-.22,3,3,0,0,1-.54-.33A.48.48,0,0,1,10.1,10a2.17,2.17,0,0,1,0-.51c.07-.35,0-.7,0-1.05l.06-.36s0-.06,0-.08a2,2,0,0,1,0-1.07.11.11,0,0,0,0,0,.38.38,0,0,1,.22-.44,2.24,2.24,0,0,1,.94-.32,5,5,0,0,1,2.18.1,3.27,3.27,0,0,1,.5.24.36.36,0,0,1,.2.41c0,.06,0,.13,0,.19a2.42,2.42,0,0,1,0,.93.14.14,0,0,0,0,.09,2,2,0,0,1,0,1,.11.11,0,0,0,0,.08,2.23,2.23,0,0,1,0,.89c0,.25-.2.38-.39.5a3,3,0,0,1-1.34.38ZM10.33,9.45a2.31,2.31,0,0,1,0,.38.54.54,0,0,0,.31.55,2.41,2.41,0,0,0,.33.15,4,4,0,0,0,2.32.05,2.26,2.26,0,0,0,.33-.13.72.72,0,0,0,.42-1A3.78,3.78,0,0,1,10.33,9.45Zm0-1.08v.41a.44.44,0,0,0,.2.41,2,2,0,0,0,.71.31,4.26,4.26,0,0,0,1.63.05,1.93,1.93,0,0,0,1-.37A.45.45,0,0,0,14,8.94a3.53,3.53,0,0,0,0-.56A3.9,3.9,0,0,1,10.33,8.37Zm0-1.07a1.47,1.47,0,0,1,0,.21.59.59,0,0,0,.42.68,3.25,3.25,0,0,0,1.4.28,3.27,3.27,0,0,0,1.54-.31A.65.65,0,0,0,14,7.31,4.71,4.71,0,0,1,10.33,7.3Z"/><path class="cls-1" d="M5.35,7.68a1.34,1.34,0,0,1-.17.65A.66.66,0,0,1,4,8.37,1.45,1.45,0,0,1,4,6.84a.65.65,0,0,1,1.16,0A1.57,1.57,0,0,1,5.35,7.68Z"/></g></g></svg>