<svg xmlns="http://www.w3.org/2000/svg" viewBox="0 0 25.89 25.9"><defs><style>.cls-1{fill:#009fe3;}</style></defs><title>Recurso 12</title><g id="Capa_2" data-name="Capa 2"><g id="Capa_1-2" data-name="Capa 1"><path class="cls-1" d="M0,13.2v-.5c.19-.24.37-.5.58-.72.4-.42.81-.82,1.22-1.23L4.09,8.46c.4-.39.73-.32.9.17A2.81,2.81,0,1,0,8.67,5c-.54-.19-.62-.5-.22-.91L8.54,4q1.8-1.81,3.61-3.61a1,1,0,0,1,1.59,0L17.31,4a2.18,2.18,0,0,0,.22.21c.33.26.6.17.77-.22a3.55,3.55,0,0,1,.49-.84,2.78,2.78,0,0,1,3.13-.84A2.84,2.84,0,0,1,22,7.57c-.52.18-.6.48-.22.88.21.22.43.43.64.64l3.11,3.11a.94.94,0,0,1,.06,1.43q-1.9,1.93-3.84,3.84c-.37.37-.7.28-.87-.22a2.81,2.81,0,0,0-5.42,1.31,2.86,2.86,0,0,0,1.71,2.32c.59.21.67.5.23.95a.46.46,0,0,1-.07.07c-1.19,1.2-2.39,2.39-3.59,3.59a1,1,0,0,1-1.61,0L8.57,21.93a1.45,1.45,0,0,0-.22-.21.44.44,0,0,0-.77.2,2.17,2.17,0,0,1-.17.42A2.83,2.83,0,0,1,2.11,21,2.78,2.78,0,0,1,4,18.31c.42-.15.5-.44.21-.79L4,17.32C2.83,16.18,1.69,15.05.56,13.9A6.36,6.36,0,0,1,0,13.2Z"/></g></g></svg>