<svg xmlns="http://www.w3.org/2000/svg" viewBox="0 0 23.33 23.34"><defs><style>.cls-1{fill:#009fe3;}</style></defs><title>Recurso 23</title><g id="Capa_2" data-name="Capa 2"><g id="Capa_1-2" data-name="Capa 1"><path class="cls-1" d="M23.33,11.34v.73a3.63,3.63,0,0,1-.9,1.16l-9.21,9.21a3.63,3.63,0,0,1-1.16.9h-.73a4.28,4.28,0,0,1-.71-.45c-.53-.48-1-1-1.54-1.51Q4.89,17.2.72,13A7.16,7.16,0,0,1,0,12v-.73a9.56,9.56,0,0,1,.75-1Q3.95,7,7.18,3.82l.25-.24L10,6.14a.43.43,0,0,1,0,.3,1.76,1.76,0,0,0,.83,2,.35.35,0,0,1,.21.35q0,3,0,5.94a.36.36,0,0,1-.21.36,1.68,1.68,0,0,0-.9,1.55,1.77,1.77,0,0,0,3.4.66,1.73,1.73,0,0,0-.64-2.14.44.44,0,0,1-.21-.42V8.69a2.28,2.28,0,0,1,.26.23c.65.65,1.29,1.3,1.95,1.94a.5.5,0,0,1,.16.54,1.74,1.74,0,0,0,2.2,2.08,1.76,1.76,0,0,0-.87-3.41A.38.38,0,0,1,15.8,10L13.58,7.73a.43.43,0,0,1-.14-.45,1.75,1.75,0,0,0-2.09-2.07.37.37,0,0,1-.4-.12c-.78-.8-1.57-1.58-2.36-2.37a1.83,1.83,0,0,1-.13-.16c.74-.75,1.47-1.49,2.2-2.21A1.2,1.2,0,0,1,11.08.1a1.61,1.61,0,0,1,1.79.48q4.81,4.85,9.66,9.67A3,3,0,0,1,23.33,11.34Z"/></g></g></svg>