<svg xmlns="http://www.w3.org/2000/svg" viewBox="0 0 17.17 24.08"><defs><style>.cls-1{fill:#009fe3;}</style></defs><title>Recurso 25</title><g id="Capa_2" data-name="Capa 2"><g id="Capa_1-2" data-name="Capa 1"><path class="cls-1" d="M17.17,6.32V7.39a12.3,12.3,0,0,1-.63,1.44,13.41,13.41,0,0,0-1.3,3s0,.07,0,.1c-.55,2.22-1.67,4-3.92,4.8a11.9,11.9,0,0,1-2.74.46A3.46,3.46,0,0,0,6,18.31l.27.39a3.29,3.29,0,0,1,.19,3.61,3.24,3.24,0,0,1-3.31,1.75A3.24,3.24,0,0,1,.28,22,7.75,7.75,0,0,1,0,21.16V20.09a3.94,3.94,0,0,1,1.58-2.33.5.5,0,0,0,.15-.37q0-5.34,0-10.7a.52.52,0,0,0-.15-.37A3.88,3.88,0,0,1,0,4V2.92a1.89,1.89,0,0,0,.09-.21,3.42,3.42,0,0,1,6.55-.5A3.39,3.39,0,0,1,5.5,6.15a.77.77,0,0,0-.37.71c0,1.71,0,3.43,0,5.14v2.47c.59-.18,1.13-.39,1.69-.5a9.15,9.15,0,0,1,1.73-.18A3.34,3.34,0,0,0,12,10.39a.84.84,0,0,0-.36-.81A3.38,3.38,0,0,1,11,4.8a3.44,3.44,0,0,1,4.75-.71A4,4,0,0,1,17.17,6.32Zm-1.72.57a1.72,1.72,0,1,0-3.43,0,1.72,1.72,0,1,0,3.43,0ZM5.14,20.68a1.71,1.71,0,1,0-3.42-.06,1.74,1.74,0,0,0,1.69,1.77A1.72,1.72,0,0,0,5.14,20.68Zm0-17.25A1.74,1.74,0,0,0,3.43,1.69,1.75,1.75,0,0,0,1.72,3.44a1.71,1.71,0,1,0,3.42,0Z"/></g></g></svg>