<svg xmlns="http://www.w3.org/2000/svg" viewBox="0 0 29.53 21.69"><defs><style>.cls-1{fill:#009fe3;}.cls-2{fill:#d2d2c7;}.cls-3{fill:#00567a;}.cls-4,.cls-5,.cls-6,.cls-7{fill:none;stroke:#009fe3;stroke-miterlimit:10;stroke-width:0.15px;}.cls-5{stroke-dasharray:0.88 0.88;}.cls-6{stroke-dasharray:0.84 0.84;}.cls-7{stroke-dasharray:0.97 0.97;}</style></defs><title>Recurso 31</title><g id="Capa_2" data-name="Capa 2"><g id="Capa_1-2" data-name="Capa 1"><rect class="cls-1" y="7.64" width="12.45" height="8.99" rx="1.55"/><path class="cls-2" d="M1.48,8.25h9.37a.7.7,0,0,1,.7.7v6.22a0,0,0,0,1,0,0H.77a0,0,0,0,1,0,0V8.95A.7.7,0,0,1,1.48,8.25Z"/><polygon class="cls-1" points="8.12 18.47 4.33 18.47 4.92 16.49 7.53 16.49 8.12 18.47"/><path class="cls-1" d="M8.05,18.64H4.39a.22.22,0,0,1-.22-.22h0a.22.22,0,0,1,.22-.23H8.05a.23.23,0,0,1,.23.23h0A.22.22,0,0,1,8.05,18.64Z"/><path class="cls-3" d="M6.58,15.94a.42.42,0,1,1-.42-.42A.41.41,0,0,1,6.58,15.94Z"/><rect class="cls-1" x="17.08" y="10.69" width="12.45" height="8.99" rx="1.55"/><path class="cls-2" d="M18.56,11.3h9.37a.7.7,0,0,1,.7.7v6.22a0,0,0,0,1,0,0H17.86a0,0,0,0,1,0,0V12A.7.7,0,0,1,18.56,11.3Z"/><polygon class="cls-1" points="25.2 21.52 21.41 21.52 22 19.54 24.61 19.54 25.2 21.52"/><path class="cls-1" d="M25.14,21.69H21.48a.22.22,0,0,1-.23-.22h0a.23.23,0,0,1,.23-.23h3.66a.22.22,0,0,1,.22.23h0A.22.22,0,0,1,25.14,21.69Z"/><path class="cls-3" d="M23.66,19a.42.42,0,1,1-.83,0,.42.42,0,1,1,.83,0Z"/><line class="cls-4" x1="5.91" y1="7.34" x2="5.91" y2="6.9"/><line class="cls-5" x1="5.91" y1="6.02" x2="5.91" y2="1.19"/><polyline class="cls-4" points="5.91 0.76 5.91 0.31 6.35 0.31"/><line class="cls-6" x1="7.2" y1="0.31" x2="23.63" y2="0.31"/><polyline class="cls-4" points="24.05 0.31 24.49 0.31 24.49 0.76"/><line class="cls-7" x1="24.49" y1="1.73" x2="24.49" y2="9.02"/><line class="cls-4" x1="24.49" y1="9.5" x2="24.49" y2="9.94"/><path class="cls-1" d="M6.22,7.34a.31.31,0,1,0-.31.31A.31.31,0,0,0,6.22,7.34Z"/><path class="cls-1" d="M6.16.31a.31.31,0,0,0-.62,0,.31.31,0,0,0,.62,0Z"/><path class="cls-1" d="M24.8.31a.31.31,0,0,0-.62,0,.31.31,0,0,0,.62,0Z"/><path class="cls-1" d="M24.8,9.94a.31.31,0,1,0-.31.32A.31.31,0,0,0,24.8,9.94Z"/></g></g></svg>