<svg xmlns="http://www.w3.org/2000/svg" viewBox="0 0 18.52 24.94"><defs><style>.cls-1{fill:#009fe3;}</style></defs><title>Recurso 17</title><g id="Capa_2" data-name="Capa 2"><g id="Capa_1-2" data-name="Capa 1"><path class="cls-1" d="M8.53,24.94c-.34-.07-.68-.13-1-.23A3.94,3.94,0,0,1,5,22.48a.9.9,0,0,0-.8-.6,6,6,0,0,1-1.66-.45A3.14,3.14,0,0,1,.58,18.92a3.81,3.81,0,0,1,.65-3.09,4.27,4.27,0,0,1,.37-.41,3.58,3.58,0,0,0,1.18,2.13,7.25,7.25,0,0,0,.09-.75c0-.73.1-1.47.1-2.21a1.54,1.54,0,0,0-.87-1.46,10.41,10.41,0,0,1-1.28-.78A1.71,1.71,0,0,1,0,10.91,1.42,1.42,0,0,1,.61,9.67a1.17,1.17,0,0,0,.59-1c0-.32,0-.63,0-1A.91.91,0,0,0,1,7.31,2.74,2.74,0,0,1,.54,6,1.37,1.37,0,0,1,1.72,4.53l.46-.07c.29-.93.09-1.39-.64-1.76A7.09,7.09,0,0,0,.41,2.34L.19,2.28A3.17,3.17,0,0,1,3,1,4.1,4.1,0,0,1,5.92,2.45c.15.15.27.33.42.48A.26.26,0,0,0,6.55,3a.23.23,0,0,0,.13-.18,2.87,2.87,0,0,1,1.09-2,2.67,2.67,0,0,1,.3-.17c.09.47,0,1,.35,1.35A2.5,2.5,0,0,1,10.3,0a5.3,5.3,0,0,0-.07.88,7.14,7.14,0,0,0,.16.92A2.5,2.5,0,0,1,12,1.06c-.14.43-.27.85-.39,1.28a.92.92,0,0,0,0,.29c0,.13,0,.29.16.34s.32.12.49-.1a4.64,4.64,0,0,1,2.6-1.82,3.3,3.3,0,0,1,3.47,1.24c-.16,0-.31,0-.45.1a9,9,0,0,0-1.15.48,1.08,1.08,0,0,0-.49,1.2,3.75,3.75,0,0,0,.09.39c.2,0,.37,0,.55.09a1.38,1.38,0,0,1,1,1.89,2.68,2.68,0,0,1-.37.76,1.37,1.37,0,0,0-.23.85c0,.26,0,.51,0,.77a.88.88,0,0,0,.39.72A1.54,1.54,0,0,1,18.52,11,1.7,1.7,0,0,1,18,12.1a6.68,6.68,0,0,1-1.65,1.07,1.4,1.4,0,0,0-.76,1.09,5,5,0,0,0,0,.87c0,.71.09,1.42.13,2.13,0,.08,0,.16.05.27a2.72,2.72,0,0,0,.77-.93c.17-.36.3-.74.45-1.12a3,3,0,0,1,.94,1.63,3.86,3.86,0,0,1-.79,3.53A3.82,3.82,0,0,1,15,21.77c-.32.07-.64.11-1,.15a.42.42,0,0,0-.39.28,4.21,4.21,0,0,1-2.27,2.36,10.12,10.12,0,0,1-1.23.33l-.19.05ZM1.39,10a1,1,0,0,0-.52.85,1,1,0,0,0,.43.88c.43.3.88.57,1.34.83a1.82,1.82,0,0,1,.95,1.28,6.83,6.83,0,0,1,.09,1.43c0,.9-.1,1.81-.15,2.73a5.74,5.74,0,0,0,1.7.31.25.25,0,0,0,.29-.19c.31-.8.63-1.6,1-2.41.14-.33.29-.65.44-1l.09,0c-.15.7-.29,1.41-.47,2.11S6.12,18.29,5.9,19h6.71c-.21-.71-.44-1.4-.63-2.1s-.32-1.41-.48-2.12l.1,0c.19.43.39.86.57,1.3.29.7.56,1.4.84,2.1,0,.07.11.17.16.17A4.9,4.9,0,0,0,15,18c-.05-1.16-.12-2.31-.14-3.45a2.14,2.14,0,0,1,1.23-2.09,7,7,0,0,0,1.19-.75A1,1,0,0,0,17.14,10c0,.2,0,.37.06.57a4.77,4.77,0,0,1-.49-4.13v.26l0,.26.08,0a8.36,8.36,0,0,0,.39-.86.62.62,0,0,0-.49-.88,1.83,1.83,0,0,0-.46-.07,5.19,5.19,0,0,0-1.87.37,10.68,10.68,0,0,0-2.63,1.54l-.52.38,0,0A6.43,6.43,0,0,1,13.92,5a3.29,3.29,0,0,0-.32-.27,11.82,11.82,0,0,0-1.22-.64,8.69,8.69,0,0,0-4-.51,7.39,7.39,0,0,0-3.17,1A6.64,6.64,0,0,0,4.59,5a6.13,6.13,0,0,1,2.7,2.53C7,7.33,6.81,7.15,6.57,7A8.53,8.53,0,0,0,3,5.28a2.68,2.68,0,0,0-1.32,0,.57.57,0,0,0-.45.52A1.61,1.61,0,0,0,1.78,7l0-.5c.5,1.06.2,3.47-.5,4.11Zm7.87,9.62v0c-1.1,0-2.19,0-3.29,0-.71,0-1.08.44-.93,1.05a4.77,4.77,0,0,0,1.22,2.34,4.2,4.2,0,0,0,4.1,1.06,4.25,4.25,0,0,0,3.13-3.42.75.75,0,0,0-.64-1,3.94,3.94,0,0,0-.77-.08ZM4.43,21.13c-.4-.86.09-1.46.6-2.06-1.59-.15-3-.56-3.64-2.19C.74,19,1.81,21.08,4.43,21.13Zm9.65,0a3.34,3.34,0,0,0,2.83-1.47,3.41,3.41,0,0,0,.19-2.77c-.65,1.59-2,2-3.62,2.16C14,19.68,14.48,20.28,14.08,21.16ZM5.51,3.4A2.93,2.93,0,0,0,1.69,2c.23.07.41.2.57.18a2.47,2.47,0,0,1,1.89.56c.32.27.59.6.9.91ZM16.77,2C15.45,1.37,14,1.83,13,3.4l.53.26a.3.3,0,0,1,.07-.11l.08-.13a2.67,2.67,0,0,1,2.43-1.25A1,1,0,0,0,16.77,2Zm-1,.79a1.56,1.56,0,0,0-1.34.89c-.24.45-.24.45.09.83.07.07.14.18.22.21a.64.64,0,0,0,.65-.41,2,2,0,0,0,0-.24A2.48,2.48,0,0,1,15.79,2.74ZM4.27,4.14l-.54-.9c-.22-.39-.6-.44-1-.51.18.61.34,1.18.51,1.74,0,.16.54.23.65.12Z"/><path class="cls-1" d="M11.16,11.4c-.75-.24-1-.5-1-1l.4.09A1.42,1.42,0,0,0,11.86,10a4.88,4.88,0,0,1,2.32-1.54,3.56,3.56,0,0,1,1.59-.07.42.42,0,0,1,.15.06l-.49.15a4,4,0,0,1,.2.77,3,3,0,0,1-.18.76l-.07,0c-.05-.19-.1-.39-.14-.59a2.4,2.4,0,0,1-1.18,1.86,1.93,1.93,0,0,1-2.16,0,2,2,0,0,0-.07,1.53A2.49,2.49,0,0,1,11.16,11.4Zm.94-.47A1.6,1.6,0,0,0,14,10.78a1.63,1.63,0,0,0,.22-1.59A6.07,6.07,0,0,0,12.1,10.93Z"/><path class="cls-1" d="M6.62,11.36a2,2,0,0,1-2.17,0A2.38,2.38,0,0,1,3.28,9.53c0,.09,0,.18-.07.27l-.06.31a1.14,1.14,0,0,1,0-1.48l-.53-.17V8.41c.2,0,.4-.07.59-.08a4.11,4.11,0,0,1,3,1.25c.15.15.3.3.44.46a1.41,1.41,0,0,0,1.52.42l.12,0h0a.9.9,0,0,1-.77.88.27.27,0,0,0-.25.28,2.48,2.48,0,0,1-.64,1.28A2,2,0,0,0,6.62,11.36ZM4.3,9.16a1.61,1.61,0,0,0,.28,1.66,1.6,1.6,0,0,0,1.86.1A7.31,7.31,0,0,0,4.3,9.16Z"/><path class="cls-1" d="M10.51,8.33C9.6,9.42,8.91,9.41,8,8.32A2.48,2.48,0,0,0,10.51,8.33Z"/><path class="cls-1" d="M11.49,22.06a1.65,1.65,0,0,1-.51-.27,5.26,5.26,0,0,1-.6-.88c-.16-.27-.05-.5.26-.52.6,0,1.2,0,1.8,0,.35,0,.47.26.31.57a1.82,1.82,0,0,1-1,1l-.24,0Z"/><path class="cls-1" d="M7,20.37c.26,0,.52,0,.78,0,.41,0,.54.24.34.59a4.58,4.58,0,0,1-.5.74.8.8,0,0,1-1.11.15,2.07,2.07,0,0,1-.75-.93c-.11-.28,0-.48.27-.52a7.88,7.88,0,0,1,1-.05Z"/></g></g></svg>