<svg xmlns="http://www.w3.org/2000/svg" viewBox="0 0 23.92 24.74"><defs><style>.cls-1{fill:#009fe3;}.cls-2{fill:#d2d2c7;}</style></defs><title>Recurso 16</title><g id="Capa_2" data-name="Capa 2"><g id="Capa_1-2" data-name="Capa 1"><path class="cls-1" d="M1.79,23H17.66c0-.12,0-.23,0-.34,0-.61,0-1.23,0-1.84a1.53,1.53,0,0,1,.27-.89c.15-.27.31-.54.47-.81l.49-.87.35-.66a2.7,2.7,0,0,1,.2-.31V23a1.74,1.74,0,0,1-.35,1.07,1.43,1.43,0,0,1-.87.56,5.32,5.32,0,0,1-1,.07c-1.42,0-2.84,0-4.25,0H4c-.79,0-1.58,0-2.37,0a1.64,1.64,0,0,1-1.12-.42,1.47,1.47,0,0,1-.49-.85,8.78,8.78,0,0,1,0-1.54C0,20.46,0,19,0,17.51V2.88C0,2.46,0,2,0,1.61A1.45,1.45,0,0,1,.24.88,2.21,2.21,0,0,1,.52.48,1.26,1.26,0,0,1,.89.21a1.82,1.82,0,0,1,1-.21h15.9A1.6,1.6,0,0,1,19,.59a1.62,1.62,0,0,1,.39.91c0,.56,0,1.11,0,1.67v5a.7.7,0,0,1-.05.25c-.2.37-.41.73-.61,1.09s-.48.83-.71,1.25c-.12.2-.23.42-.34.62l-.07.08V1.77H1.79Z"/><path class="cls-2" d="M21,8.21l.68.39.93.54c.16.09.17.11.07.27l-.44.73-.71,1.25-.45.82c-.1.17-.22.34-.32.52L20,13.94l-.87,1.48-.67,1.19c-.23.4-.48.79-.71,1.2s-.45.81-.68,1.22-.39.68-.59,1a.34.34,0,0,1-.16.13l-.58.36-.53.31-.6.37v-.79c0-.38,0-.77,0-1.15a.9.9,0,0,1,.17-.49c.14-.24.3-.47.43-.71s.28-.51.43-.77.44-.73.66-1.1.3-.56.46-.84l.72-1.22c.23-.39.44-.78.67-1.17s.33-.55.5-.83.44-.77.67-1.15L20.1,9.7c.15-.25.29-.51.43-.76S20.82,8.47,21,8.21Z"/><path class="cls-1" d="M3.3,14.64V13.38H16.16v1.26Z"/><path class="cls-1" d="M16.16,7.58V8.84H3.3V7.58Z"/><path class="cls-1" d="M13.13,16.16v1.25H3.3V16.16Z"/><path class="cls-1" d="M13.14,4.55V5.81H3.3V4.55Z"/><path class="cls-1" d="M13.13,10.36v1.25H3.3V10.36Z"/><path class="cls-1" d="M8.32,21.59a1.23,1.23,0,0,1,0-2.46,1.23,1.23,0,1,1,0,2.46Z"/><path class="cls-2" d="M23.92,7.38c-.13.23-.25.44-.38.65l-.26.46c0,.08-.07.08-.14,0l-1.06-.62-.63-.36c.23-.4.45-.79.69-1.19Z"/></g></g></svg>