<svg xmlns="http://www.w3.org/2000/svg" viewBox="0 0 14.79 16.62"><defs><style>.cls-1{fill:#009fe3;}</style></defs><title>Recurso 3</title><g id="Capa_2" data-name="Capa 2"><g id="Capa_1-2" data-name="Capa 1"><path class="cls-1" d="M0,0H14.79l0,.5c-.08.76-.15,1.53-.22,2.3l-.21,2.28-.21,2.3-.21,2.28c-.07.77-.15,1.53-.22,2.3s-.13,1.52-.2,2.28c0,.23,0,.47-.07.7a.24.24,0,0,1-.14.12L9.65,16l-2.11.57a.61.61,0,0,1-.27,0L1.54,15.07c-.13,0-.16-.09-.17-.21-.08-.88-.16-1.76-.25-2.64S1,10.46.89,9.59.74,8.06.67,7.3L.46,5,.25,2.74.07.81C.05.55,0,.28,0,0ZM3.24,8.55H9.6l0,0c0,.75-.09,1.5-.14,2.24,0,.05-.07.1-.12.12l-1.87.53a.44.44,0,0,1-.16,0L5.44,11a.18.18,0,0,1-.09-.1c0-.4-.07-.81-.1-1.22,0-.12,0-.16-.17-.16-.4,0-.8,0-1.2,0H3.37v.1c.07.86.15,1.72.22,2.58a.18.18,0,0,0,.16.19l3.52,1a.5.5,0,0,0,.27,0c.35-.09.69-.2,1-.3L11,12.42c.05,0,.13-.07.13-.12.08-.77.14-1.55.21-2.33l.18-2c0-.38.06-.76.09-1.17H7.47a.31.31,0,0,1,.15-.1l4-1.72a.24.24,0,0,0,.17-.26c0-.27.06-.53.08-.8s.06-.54.08-.81H2.71c.08.61.15,1.2.23,1.81H7.62l-.13.06L3.24,6.71c-.09,0-.15.06-.14.18C3.15,7.43,3.19,8,3.24,8.55Z"/></g></g></svg>