<svg xmlns="http://www.w3.org/2000/svg" viewBox="0 0 17.95 20.64"><defs><style>.cls-1{fill:#b8b7ad;}.cls-2{fill:#fff;}</style></defs><title>Recurso 4</title><g id="Capa_2" data-name="Capa 2"><g id="Capa_1-2" data-name="Capa 1"><path class="cls-1" d="M6.62,0h9.79a1.54,1.54,0,0,1,1.54,1.54V19.1a1.54,1.54,0,0,1-1.54,1.54H6.62A4.94,4.94,0,0,1,1.68,15.7V4.94A4.94,4.94,0,0,1,6.62,0Z"/><path class="cls-1" d="M3.23,6.29H.76A.76.76,0,0,1,0,5.54H0a.76.76,0,0,1,.76-.76H3.23A.76.76,0,0,1,4,5.54H4A.76.76,0,0,1,3.23,6.29Z"/><path class="cls-1" d="M3.23,10.47H.76A.76.76,0,0,1,0,9.72H0A.76.76,0,0,1,.76,9H3.23A.76.76,0,0,1,4,9.72H4A.76.76,0,0,1,3.23,10.47Z"/><path class="cls-1" d="M3.23,14.65H.76A.76.76,0,0,1,0,13.9H0a.76.76,0,0,1,.76-.76H3.23A.76.76,0,0,1,4,13.9H4A.76.76,0,0,1,3.23,14.65Z"/><path class="cls-2" d="M15.41,4.78H4.84a.91.91,0,0,1-.91-.91h0A.91.91,0,0,1,4.84,3H15.41a.91.91,0,0,1,.91.91h0A.91.91,0,0,1,15.41,4.78Z"/><path class="cls-2" d="M15.41,9.07H4.84a.91.91,0,0,1-.91-.91h0a.91.91,0,0,1,.91-.91H15.41a.91.91,0,0,1,.91.91h0A.91.91,0,0,1,15.41,9.07Z"/><path class="cls-2" d="M15.41,13.36H4.84a.91.91,0,0,1-.91-.91h0a.91.91,0,0,1,.91-.91H15.41a.91.91,0,0,1,.91.91h0A.91.91,0,0,1,15.41,13.36Z"/><path class="cls-2" d="M15.41,17.65H4.84a.91.91,0,0,1-.91-.91h0a.91.91,0,0,1,.91-.91H15.41a.91.91,0,0,1,.91.91h0A.91.91,0,0,1,15.41,17.65Z"/></g></g></svg>