<svg xmlns="http://www.w3.org/2000/svg" viewBox="0 0 25.8 25.35"><defs><style>.cls-1{fill:#009fe3;}</style></defs><title>Recurso 20</title><g id="Capa_2" data-name="Capa 2"><g id="Capa_1-2" data-name="Capa 1"><path class="cls-1" d="M20.06,25.35H10.89a2,2,0,0,0-.31-.12,6,6,0,0,1-5.29-6.06c0-2.77,0-5.54,0-8.31a6.06,6.06,0,0,1,6-6h8.43a6,6,0,0,1,5.84,4.67c.08.35.15.7.23,1.05v9a2.78,2.78,0,0,0-.12.38,6,6,0,0,1-4.62,5.14Zm-5.4-6.56a4.37,4.37,0,0,0,8.74.08A4.46,4.46,0,0,0,19,14.44,4.4,4.4,0,0,0,14.66,18.79Zm-4.25-5.46a2.77,2.77,0,0,0,2.79-2.69,2.81,2.81,0,0,0-2.79-2.82,2.83,2.83,0,0,0-2.73,2.76A2.78,2.78,0,0,0,10.41,13.33Z"/><path class="cls-1" d="M0,1.84l.16-.4A2.22,2.22,0,0,1,2.63,0,2.13,2.13,0,0,1,4.36,2.26,2.14,2.14,0,0,1,2.45,4.34,2.2,2.2,0,0,1,.13,2.79C.1,2.66,0,2.54,0,2.42Z"/></g></g></svg>