<svg xmlns="http://www.w3.org/2000/svg" viewBox="0 0 20.3 24"><defs><style>.cls-1{fill:#009fe3;}</style></defs><title>Recurso 35</title><g id="Capa_2" data-name="Capa 2"><g id="Capa_1-2" data-name="Capa 1"><path class="cls-1" d="M9.89,0C7.47,0,6.24,1.75,6.24,5.2V7.81a1.42,1.42,0,0,1-.14.6,4.79,4.79,0,0,1-.31.45,15.81,15.81,0,0,0-2.62,6.85,2.22,2.22,0,0,1,.37,0c.32,0,1.16,0,2.5,2.21.26.37.39.59.58.9s.27.47.52.86v0a5.91,5.91,0,0,0,.43.64c.08.11.17.22.25.34a1.89,1.89,0,0,0,.84-.6A1.25,1.25,0,0,0,8.6,18.7c-.12-.19-.35-.32-.9-.64a8.17,8.17,0,0,1-.93-.58,3,3,0,0,1-1-1.84A11.49,11.49,0,0,1,7.39,10.9a7.8,7.8,0,0,0,.88-1.73,1,1,0,0,0,.26.14h0a3.53,3.53,0,0,0,1,.08A2.26,2.26,0,0,0,10.71,9c.32-.2.64-.38.69-.4a9.33,9.33,0,0,0,.86,1.29,12.18,12.18,0,0,1,2.22,6.06,2,2,0,0,1,1.13-.28h.17l.39,0a4,4,0,0,1,1,.21,2,2,0,0,1,1,.6,1.41,1.41,0,0,1,.61.15c0-.34,0-.84,0-1a11.19,11.19,0,0,0-2-5.3c-.17-.25-.34-.49-.51-.71a8.51,8.51,0,0,1-1.68-3.28,10,10,0,0,1-.28-1.48A8.9,8.9,0,0,0,14,3.53C13.7,2,13.29,0,9.89,0ZM8.33,3.12c.57,0,1,1,1,1.91,0,.06,0,.14,0,.21H9.24a1.86,1.86,0,0,0-.42,0c-.06-.33-.25-.57-.49-.57s-.52.35-.52.78a.92.92,0,0,0,0,.29l-.32.26,0,0a1.09,1.09,0,0,1-.1-.25c-.06-.37-.1-.81-.1-.81C7.29,4.17,7.75,3.12,8.33,3.12Zm2.6,0c.57,0,1,1,1,1.91a3.1,3.1,0,0,1-.18,1,2.58,2.58,0,0,0-.42-.14,1.23,1.23,0,0,0,.08-.39c0-.43-.23-.78-.52-.78s-.52.35-.52.78h0L9.9,5.33c0-.11,0-.22,0-.3C9.89,4.17,10.35,3.12,10.93,3.12ZM9.24,6.28a2.48,2.48,0,0,1,.8.19l.72.33,0,0h0a4.71,4.71,0,0,1,.6.18,2,2,0,0,1-.07.37s-.08.09-.35.23a4.92,4.92,0,0,0-.85.47,2.44,2.44,0,0,1-.63.29,3.9,3.9,0,0,1-.67,0s0,0-.15-.12-.26-.26-.4-.42l0,0,0,0a1.51,1.51,0,0,1-.36-.3c-.07-.07-.07-.09-.07-.14s0,0,0-.09l.38-.34h0l0,0a3,3,0,0,1,.36-.29A1.4,1.4,0,0,1,9.24,6.28Zm6.54,10.4a1.36,1.36,0,0,0-.92.26,2.43,2.43,0,0,1,.48.91.81.81,0,0,0,.79.4c.88,0,1.05-.54,1.33-.83a.29.29,0,0,1-.07-.16.89.89,0,0,0-.58-.4,2.87,2.87,0,0,0-.72-.16Zm-12.24,0a1,1,0,0,0-.78.42,6.6,6.6,0,0,1-.92.91c-.38.49-1.49,0-1.81.75-.17.4.43.92.43,1.82,0,.36-.3.6-.36.84a1,1,0,0,0,0,.73c.24.36.54.48,2.6.9,1.08.24,2.11.84,2.77.9a1.46,1.46,0,0,0,1.81-1.62c.06-1-.48-1.21-1-2.17s-.66-1.14-1.08-1.74S4,16.72,3.54,16.72Zm10.63,1a2.15,2.15,0,0,0-.12,1A11.56,11.56,0,0,1,14,20.27c-.12,1.05-.46,1.52-.46,2.13A1.61,1.61,0,0,0,14,23.7c.18.18.49.3,1.17.3a2,2,0,0,0,1.54-.67,11.14,11.14,0,0,1,1.41-1c.68-.43,1.72-1,1.91-1.17s.31-.18.31-.55a.53.53,0,0,0-.43-.49,2.42,2.42,0,0,1-1.05-.86c-.16-.27-.14-1-.33-1.37l-.27.28-.08.12a2.32,2.32,0,0,1-2,1.05,1.83,1.83,0,0,1-1.74-1l0-.06,0-.06A1.2,1.2,0,0,0,14.17,17.76Zm-1.42,3.32a3.46,3.46,0,0,1-2.34.84,3.39,3.39,0,0,1-2.33-.83,2.67,2.67,0,0,1,.24,1.31,3.33,3.33,0,0,1-.05.56h4.26a4.92,4.92,0,0,1,0-.56,3.6,3.6,0,0,1,.23-1.19Z"/></g></g></svg>