<svg xmlns="http://www.w3.org/2000/svg" viewBox="0 0 16.95 20.83"><defs><style>.cls-1{fill:#009fe3;}</style></defs><title>Recurso 8</title><g id="Capa_2" data-name="Capa 2"><g id="Capa_1-2" data-name="Capa 1"><path class="cls-1" d="M15.93,20.83H1a1.57,1.57,0,0,1-1-1.67C0,13.27,0,7.39,0,1.5A1.35,1.35,0,0,1,1.48,0h11.1a1.12,1.12,0,0,1,.65.25c1.13,1,2.24,2,3.37,3a.94.94,0,0,1,.35.79c0,5,0,10.05,0,15.07A1.57,1.57,0,0,1,15.93,20.83ZM1.34,1.32V19.49H15.62V4.54H12.05V1.32ZM14.57,3.23l-1.2-1.1v1.1Z"/><path class="cls-1" d="M9.06,13.71h.83v3.84h-.8V16H7.74v1.59H7V13.72h.78v1.43H9.06Z"/><path class="cls-1" d="M9.32,5l.91.35-2.6,6.49-.9-.35C7.6,9.36,8.45,7.22,9.32,5Z"/><path class="cls-1" d="M4.43,16v1.54H3.64V13.73a15.22,15.22,0,0,1,1.91,0c.65.08.92.54.87,1.25a1.06,1.06,0,0,1-1.07,1C5.07,16,4.78,16,4.43,16Zm0-.59a8.67,8.67,0,0,0,1.07-.32c.07,0,.05-.49,0-.52a6.68,6.68,0,0,0-1-.27Z"/><path class="cls-1" d="M10.57,13.69c.58,0,1.14,0,1.69,0a1.06,1.06,0,0,1,1.08,1.18A1.07,1.07,0,0,1,12.26,16c-.29,0-.58,0-.92,0v1.53h-.77Zm.79,1.75a10.83,10.83,0,0,0,1.1-.37.65.65,0,0,0,0-.49,7.12,7.12,0,0,0-1.06-.27Z"/><path class="cls-1" d="M4.91,8.3l1.63,1.77-.7.67L3.59,8.3,5.83,5.87l.72.64Z"/><path class="cls-1" d="M13.37,8.3c-.76.81-1.5,1.61-2.26,2.44-.24-.23-.45-.42-.71-.65L12,8.3,10.41,6.52l.7-.66Z"/></g></g></svg>