<svg xmlns="http://www.w3.org/2000/svg" viewBox="0 0 21.55 24.58"><defs><style>.cls-1{fill:#009fe3;}</style></defs><title>Recurso 19</title><g id="Capa_2" data-name="Capa 2"><g id="Capa_1-2" data-name="Capa 1"><path class="cls-1" d="M11,24.58c0-.53.05-1.06.05-1.6,0-3.28,0-6.57,0-9.85a.91.91,0,0,1,.53-.92c3.13-1.79,6.25-3.6,9.38-5.4.15-.09.31-.16.54-.28,0,.27,0,.47,0,.66,0,3.6,0,7.19,0,10.78a.89.89,0,0,1-.53.91Q16.4,21.52,11.8,24.2a6.42,6.42,0,0,0-.53.38Z"/><path class="cls-1" d="M10.28,24.58a4.17,4.17,0,0,0-.47-.36L.48,18.84c-.27-.16-.48-.29-.48-.69,0-3.76,0-7.52,0-11.28a2.91,2.91,0,0,1,0-.31c.17.07.31.12.44.19C1.59,7.38,2.68,8,3.8,8.65a.75.75,0,0,1,.45.77c0,.94,0,1.89,0,2.85l1.47.8V9.81l.57.28c1.22.71,2.44,1.44,3.68,2.12a.88.88,0,0,1,.53.91c0,3.58,0,7.15,0,10.73,0,.24,0,.48,0,.73Z"/><path class="cls-1" d="M6.07,9.26,7.88,8.2c2.74-1.58,5.47-3.15,8.2-4.74a.75.75,0,0,1,.89,0c1.38.82,2.78,1.62,4.24,2.46l-.47.31-9.54,5.5c-.17.1-.46.21-.59.13C9.11,11,7.63,10.16,6.07,9.26Z"/><path class="cls-1" d="M.34,6l.53-.34C4,3.79,7.16,2,10.3.16a.8.8,0,0,1,.94,0C12.45.89,13.69,1.58,15,2.31l-.42.29C11.36,4.44,8.17,6.27,5,8.12a.81.81,0,0,1-1,0C2.85,7.39,1.62,6.69.34,6Z"/></g></g></svg>