<?xml version="1.0" encoding="UTF-8" standalone="no" ?>
<!-- Generator: Gravit.io -->
<svg xmlns="http://www.w3.org/2000/svg" xmlns:xlink="http://www.w3.org/1999/xlink" style="isolation:isolate" viewBox="0 0 560 315" width="560pt" height="315pt">
    <defs>
        <clipPath id="_clipPath_oVNxTad7OUQOzHXMv8UFkkjq0F03bwir">
            <rect width="560" height="315" />
        </clipPath>
    </defs>
    <g clip-path="url(#_clipPath_oVNxTad7OUQOzHXMv8UFkkjq0F03bwir)">
        <g>
            <path d=" M 34.47 10.771 C 33.299 9.598 32.144 8.443 31.032 7.33 C 31.538 6.781 32.006 6.13 32.61 5.652 C 33.603 4.865 35.056 5.077 35.907 6.02 C 36.752 6.958 36.784 8.381 35.933 9.347 C 35.485 9.855 34.961 10.297 34.47 10.771 Z " fill="rgb(0,185,242)" />
            <g>
                <g>
                    <path d=" M 33.133 33.015 C 31.987 33.506 30.97 33.475 29.941 33.159 C 27.542 32.421 26.089 30.087 26.454 27.591 C 26.487 27.371 26.435 27.055 26.292 26.908 C 25.017 25.59 23.711 24.3 22.32 22.907 C 19.819 25.427 17.338 27.926 14.827 30.456 C 14.548 29.375 14.55 29.323 13.472 29.282 C 12.784 29.255 12.452 29.067 12.497 28.331 C 12.519 27.957 12.414 27.577 12.362 27.159 C 12.012 27.112 11.678 27.068 11.391 27.03 C 13.878 24.568 16.38 22.09 18.929 19.566 C 18.624 19.233 18.492 19.078 18.349 18.935 C 17.126 17.711 15.892 16.5 14.684 15.261 C 14.381 14.951 14.104 14.879 13.675 14.954 C 10.227 15.556 7.126 11.938 8.226 8.619 C 8.251 8.543 8.302 8.477 8.354 8.383 C 9.294 9.371 10.216 10.34 11.109 11.279 C 12.205 10.16 13.153 9.193 14.255 8.069 C 13.342 7.258 12.328 6.358 11.2 5.355 C 12.701 4.824 13.941 4.913 15.153 5.46 C 17.187 6.377 18.355 8.652 17.971 10.842 C 17.931 11.074 17.993 11.415 18.146 11.572 C 19.513 12.981 20.91 14.361 22.404 15.853 C 23.587 14.642 24.754 13.439 25.931 12.246 C 27.1 11.062 28.279 9.888 29.447 8.715 C 30.616 9.934 31.758 11.124 32.92 12.336 C 30.674 14.566 28.3 16.92 25.804 19.397 C 26.458 20.002 27.04 20.526 27.607 21.067 C 28.071 21.509 28.546 21.944 28.961 22.429 C 29.582 23.156 30.21 23.476 31.282 23.407 C 34.606 23.194 37.106 26.441 36.242 29.648 C 36.215 29.747 36.169 29.841 36.104 30.009 C 35.156 28.98 34.244 27.988 33.35 27.015 C 32.193 28.192 31.241 29.16 30.123 30.298 C 31.064 31.147 32.071 32.055 33.133 33.015 Z " fill="rgb(0,185,242)" />
                </g>
                <path d=" M 11.124 28.387 C 11.18 28.911 11.247 29.413 11.284 29.918 C 11.309 30.274 11.455 30.444 11.828 30.468 C 12.336 30.501 12.84 30.587 13.396 30.657 C 13.431 31.035 13.464 31.388 13.503 31.813 C 11.82 32.319 10.151 32.821 8.43 33.338 C 8.43 33.206 8.407 33.105 8.434 33.019 C 8.881 31.573 9.342 30.131 9.78 28.683 C 9.868 28.392 9.971 28.234 10.307 28.306 C 10.552 28.359 10.81 28.359 11.124 28.387 Z " fill="rgb(0,185,242)" />
            </g>
        </g>
    </g>
</svg>